<svg version="1.1" id="Layer_1" xmlns="http://www.w3.org/2000/svg" xmlns:xlink="http://www.w3.org/1999/xlink" x="0px" y="0px"
	 width="100%" viewBox="0 0 178 178" enable-background="new 0 0 178 178" xml:space="preserve">

	
M76.000000,179.000000 
	C51.016022,179.000000 26.032043,179.000000 1.024033,179.000000 
	C1.024033,119.720718 1.024033,60.441429 1.024033,1.081070 
	C60.241161,1.081070 119.482475,1.081070 178.861893,1.081070 
	C178.861893,60.333126 178.861893,119.666512 178.861893,179.000000 
	C154.572845,179.000000 130.255081,179.000000 105.162811,178.773346 
	C104.610008,178.094467 104.831703,177.642242 105.440170,177.127045 
	C107.201591,176.665771 108.576241,176.267502 110.215836,175.719391 
	C110.890244,175.425934 111.299713,175.282349 111.709190,175.138763 
	C111.709297,175.402039 111.709412,175.665298 111.709526,175.928574 
	C111.132317,175.744644 110.555099,175.560715 109.762100,175.211731 
	C109.381195,174.972305 109.216080,174.897888 109.052948,174.542496 
	C109.051582,173.886917 109.048241,173.512314 109.346405,173.064713 
	C110.061165,172.970718 110.474396,172.949707 111.234245,173.011017 
	C113.406296,173.327911 115.231743,173.562485 117.419449,173.820160 
	C129.865738,170.275116 139.967499,163.448746 149.329193,154.838409 
	C152.778992,151.550247 155.893219,148.278061 159.264954,144.886719 
	C159.948624,144.178619 160.374786,143.589661 160.803528,142.666611 
	C160.045547,140.868668 159.284973,139.404816 158.406570,137.617767 
	C157.518082,136.209274 156.747421,135.123947 155.937714,133.692276 
	C153.209473,129.547607 150.520279,125.749290 148.059814,121.788597 
	C148.755692,120.639999 149.811722,119.488342 149.589081,118.695946 
	C148.572800,115.078758 147.197556,111.562424 145.908188,107.654343 
	C143.239609,102.519882 139.997910,97.968712 138.128250,92.910393 
	C135.064972,84.622726 128.350098,83.026497 120.999573,81.986160 
	C120.998558,82.003517 121.030281,81.998909 120.914215,81.800049 
	C120.600670,81.358322 120.356918,81.178055 119.639175,81.047066 
	C109.745728,80.052711 100.279991,79.071678 90.406929,78.060303 
	C88.460236,78.379791 86.933830,78.949570 85.379242,79.041252 
	C78.761520,79.431549 72.090157,79.319267 65.532715,80.142250 
	C62.525173,80.519699 59.735497,82.633110 56.524509,83.803085 
	C52.761047,84.729370 47.703426,84.759445 46.184357,87.093002 
	C41.749386,93.905891 38.727116,101.638390 35.095493,109.378113 
	C36.263504,111.686943 29.975203,114.817085 35.863419,116.286583 
	C32.771343,119.377380 29.844662,122.175346 26.634752,125.181839 
	C23.413443,128.932999 23.818825,132.574615 25.884575,136.369461 
	C27.052605,138.515152 27.978497,140.792664 28.651150,143.062531 
	C22.596231,145.072449 21.731382,147.393921 25.818142,151.325729 
	C34.496273,159.674805 44.271904,166.500687 55.278782,171.538620 
	C59.641155,173.535278 63.808418,176.066360 67.220566,170.229233 
	C67.303001,170.088211 67.839165,170.212418 68.105438,170.585114 
	C68.684563,172.655930 69.321960,174.354553 70.148468,176.373474 
	C72.224472,177.069931 74.111359,177.446060 76.273293,178.116241 
	C76.365562,178.606857 76.182785,178.803421 76.000000,179.000000 
M130.938919,72.648537 
	C130.960938,72.324181 130.982971,71.999832 131.814804,71.758133 
	C132.480667,71.401581 133.711929,71.070602 133.729385,70.684723 
	C134.124680,61.944592 134.950836,53.072712 128.030273,45.313793 
	C127.395920,44.862797 126.761566,44.411800 125.835617,43.342541 
	C116.098763,33.788036 103.857452,31.922617 90.495804,31.982512 
	C90.495804,31.982512 90.005486,31.997868 89.088898,31.926357 
	C77.339806,31.944162 66.206818,33.950623 56.370857,42.197098 
	C55.520966,43.102745 54.671074,44.008392 53.278736,45.313835 
	C48.784557,50.049515 47.385593,56.098774 47.528481,62.176029 
	C47.598808,65.167343 45.926659,70.414780 51.992233,71.528809 
	C51.986019,71.957962 51.979801,72.387108 51.334763,73.131508 
	C49.642860,74.090706 47.861679,74.923668 46.281734,76.041161 
	C44.321640,77.427528 42.642887,79.076416 45.159138,82.228966 
	C48.179604,81.513397 51.239582,80.932434 54.213837,80.059418 
	C68.546814,75.852371 83.231873,75.130356 98.008179,75.793030 
	C110.263084,76.342628 122.413017,77.623001 133.742111,83.069824 
	C134.607391,83.485840 136.522415,81.718422 138.147675,80.244781 
	C135.713531,78.036293 133.279404,75.827805 130.938919,72.648537 
z"/>
<path fill="#D17C70" opacity="1.000000" stroke="none" 
	d="
M101.000000,179.000000 
	C98.629440,179.000000 96.258888,179.000000 93.460754,178.850739 
	C93.033188,178.701477 93.035484,178.401123 93.385460,178.299622 
	C94.153496,177.674377 94.571548,177.150620 95.086777,176.363617 
	C96.371483,172.302460 97.308151,168.358780 101.234192,166.117798 
	C101.689995,166.349625 101.914299,166.533875 102.060013,167.199432 
	C101.673874,171.429947 101.336937,175.214981 101.000000,179.000000 
z"/>
<path fill="#96959D" opacity="1.000000" stroke="none" 
	d="
M101.399994,179.000000 
	C101.336937,175.214981 101.673874,171.429947 102.422844,167.277695 
	C103.661079,168.091782 105.004280,169.194611 105.198212,170.471924 
	C105.529465,172.653671 105.140099,174.944824 105.053406,177.190033 
	C104.831703,177.642242 104.610008,178.094467 104.694153,178.773346 
	C103.933327,179.000000 102.866661,179.000000 101.399994,179.000000 
z"/>
<path fill="#93919A" opacity="1.000000" stroke="none" 
	d="
M76.375000,179.000000 
	C76.182785,178.803421 76.365562,178.606857 76.235207,177.716614 
	C75.619057,174.756729 75.184837,172.498672 75.043465,170.222443 
	C74.826721,166.732544 76.382423,166.113098 79.124840,168.407242 
	C79.041237,172.243256 79.020615,175.621628 79.000000,179.000000 
	C78.250000,179.000000 77.500000,179.000000 76.375000,179.000000 
z"/>
<path fill="#E18479" opacity="1.000000" stroke="none" 
	d="
M79.399994,179.000000 
	C79.020615,175.621628 79.041237,172.243256 79.384468,168.597290 
	C81.111954,169.878464 82.516823,171.427216 84.070953,173.252655 
	C84.503014,174.282898 84.785805,175.036499 85.006424,176.112274 
	C84.296173,177.289642 83.648087,178.144821 83.000000,179.000000 
	C81.933327,179.000000 80.866661,179.000000 79.399994,179.000000 
z"/>
<path fill="#C07D7A" opacity="1.000000" stroke="none" 
	d="
M83.454102,179.000000 
	C83.648087,178.144821 84.296173,177.289642 85.296471,176.365082 
	C87.777367,176.870407 89.906052,177.445114 92.298851,178.078598 
	C92.720459,178.225296 92.877968,178.313217 93.035484,178.401123 
	C93.035484,178.401123 93.033188,178.701477 93.016594,178.850739 
	C89.969406,179.000000 86.938812,179.000000 83.454102,179.000000 
z"/>
<path fill="#333333" opacity="1.000000" stroke="none" 
	d="
M51.993221,70.882034 
	C45.926659,70.414780 47.598808,65.167343 47.528481,62.176029 
	C47.385593,56.098774 48.784557,50.049515 53.898743,45.187248 
	C55.737614,46.152882 56.956478,47.245098 58.777794,48.877167 
	C58.408459,47.382324 58.225986,46.643787 58.409904,45.914448 
	C63.164597,44.027252 67.435944,41.740276 71.984261,40.378269 
	C74.794914,39.536613 78.027168,40.102882 81.386826,40.292587 
	C87.765442,40.385311 93.827393,40.222538 100.229660,40.116886 
	C102.870979,40.456028 105.171989,40.738056 107.725113,41.050983 
	C107.934212,41.327785 108.401337,42.631012 109.229897,42.928890 
	C113.719391,44.542957 118.291412,45.931400 122.866302,47.292389 
	C123.097115,47.361057 123.618576,46.452690 124.429337,45.999031 
	C125.995911,45.959038 127.137863,45.919250 128.279816,45.879459 
	C134.950836,53.072712 134.124680,61.944592 133.729385,70.684723 
	C133.711929,71.070602 132.480667,71.401581 131.139114,71.506142 
	C122.710854,69.696983 115.022514,67.469254 107.192627,66.719131 
	C89.688087,65.042152 72.174660,65.084328 54.988525,69.551453 
	C54.693184,68.728630 54.414856,68.211540 54.136528,67.694458 
	C53.756645,68.440697 53.376770,69.186935 52.800674,70.059952 
	C52.348625,70.372704 52.144878,70.604477 51.993221,70.882034 
M57.145576,51.463642 
	C57.088886,51.163422 57.032196,50.863197 56.975502,50.562977 
	C56.906963,50.860706 56.838425,51.158440 57.145576,51.463642 
M54.536346,59.145657 
	C54.836582,59.088966 55.136818,59.032272 55.437054,58.975578 
	C55.139305,58.907032 54.841560,58.838482 54.536346,59.145657 
M127.146194,60.464977 
	C127.089310,60.163860 127.032425,59.862740 126.975548,59.561626 
	C126.906830,59.860256 126.838120,60.158890 127.146194,60.464977 
z"/>
<path fill="#472F22" opacity="1.000000" stroke="none" 
	d="
M68.163704,170.212906 
	C67.839165,170.212418 67.303001,170.088211 67.220566,170.229233 
	C63.808418,176.066360 59.641155,173.535278 55.278782,171.538620 
	C44.271904,166.500687 34.496273,159.674805 25.818142,151.325729 
	C21.731382,147.393921 22.596231,145.072449 28.647575,143.048828 
	C29.006304,142.983383 28.976130,142.986023 28.975048,143.265564 
	C29.589827,143.704712 30.205685,143.864304 31.206421,144.012787 
	C32.104332,143.982590 32.617363,143.963516 33.330681,144.174271 
	C34.022053,145.276611 34.513130,146.149139 35.296661,147.261169 
	C42.376308,147.672104 49.163494,147.843536 55.967987,148.426834 
	C55.998386,150.213867 56.011482,151.589035 56.016075,153.412735 
	C55.592205,158.395370 55.176830,162.929474 54.664608,168.520737 
	C55.960705,167.111191 56.482765,166.543427 57.221169,165.786316 
	C57.627975,165.061707 57.818436,164.526474 58.004517,163.994537 
	C58.000137,163.997818 57.996086,164.009750 58.248020,163.729309 
	C61.391788,158.209122 59.552464,153.113190 58.430454,147.986755 
	C61.228912,147.640198 63.627472,147.314499 66.250275,147.026276 
	C66.474518,147.063751 66.920891,147.150345 67.008133,147.494446 
	C67.955452,150.287003 68.815536,152.735458 69.391693,155.186798 
	C67.528343,154.512726 65.948929,153.835785 64.336708,153.144791 
	C64.651756,155.999298 64.965149,158.838776 65.185638,160.836456 
	C66.908890,160.836456 68.321365,160.836456 69.809875,161.229019 
	C69.293861,164.476486 68.701805,167.331375 68.132874,170.172760 
	C68.155991,170.159256 68.163704,170.212906 68.163704,170.212906 
z"/>
<path fill="#493023" opacity="1.000000" stroke="none" 
	d="
M148.993607,154.854355 
	C139.967499,163.448746 129.865738,170.275116 117.364761,173.552231 
	C116.328964,172.570816 115.710106,171.880402 114.976891,170.927765 
	C114.576935,170.431244 114.291344,170.196945 114.017349,169.984924 
	C114.028961,170.007233 114.055840,169.964752 114.029221,169.626709 
	C113.633759,168.228806 113.264915,167.168976 112.877365,165.788193 
	C112.369659,164.334244 111.880669,163.201233 111.343155,161.634460 
	C112.106819,157.350220 112.919014,153.499725 114.047989,149.952362 
	C116.933472,150.492310 119.502174,150.729156 122.312561,151.095398 
	C123.035240,151.487808 123.516235,151.750839 123.999947,152.006027 
	C124.002663,151.998199 123.986221,151.997589 123.988091,152.342651 
	C124.660599,153.790894 125.331245,154.894089 126.129456,156.209595 
	C126.465591,156.685013 126.716774,156.897827 127.059128,157.151276 
	C127.107681,157.242172 127.373688,157.240723 127.373688,157.240723 
	C127.373688,157.240723 127.060051,157.010422 126.919876,156.804504 
	C126.570068,156.332535 126.309189,156.133713 126.007843,155.627045 
	C126.010033,154.501556 126.001457,153.751160 126.405029,152.928925 
	C133.653229,152.579453 140.488449,152.236206 147.326935,152.149460 
	C147.870956,152.142563 148.437515,153.910980 148.993607,154.854355 
z"/>
<path fill="#955D29" opacity="1.000000" stroke="none" 
	d="
M137.949509,80.965904 
	C136.522415,81.718422 134.607391,83.485840 133.742111,83.069824 
	C122.413017,77.623001 110.263084,76.342628 98.008179,75.793030 
	C83.231873,75.130356 68.546814,75.852371 54.213837,80.059418 
	C51.239582,80.932434 48.179604,81.513397 45.069328,81.507996 
	C47.813690,74.784088 53.859322,73.887054 59.131809,73.235153 
	C72.339043,71.602165 85.666039,70.937813 99.314041,69.851624 
	C100.897072,69.530083 102.111053,69.241821 103.487061,68.883667 
	C103.649094,68.813759 103.976128,68.946480 104.107895,69.315765 
	C105.408890,70.125679 106.544235,70.765297 107.753441,70.971237 
	C112.157784,71.721375 116.586815,72.326561 121.391869,73.020355 
	C127.167969,75.691528 132.558746,78.328712 137.949509,80.965904 
z"/>
<path fill="#432D21" opacity="1.000000" stroke="none" 
	d="
M149.329193,154.838409 
	C148.437515,153.910980 147.870956,152.142563 147.326935,152.149460 
	C140.488449,152.236206 133.653229,152.579453 126.150284,152.811218 
	C124.984329,152.509460 124.485275,152.253525 123.986221,151.997589 
	C123.986221,151.997589 124.002663,151.998199 124.014824,151.674835 
	C124.031517,150.909561 124.036041,150.467651 124.381065,149.952911 
	C127.570442,146.332672 130.287643,142.664902 133.350739,139.313248 
	C134.236847,138.343643 136.418945,137.512451 137.488098,137.933929 
	C142.602127,139.949951 147.537888,142.418213 152.675980,144.789856 
	C152.717316,144.556808 152.855301,143.778946 153.350708,143.000732 
	C154.419174,142.999344 155.130203,142.998337 156.114716,143.049225 
	C157.100266,141.381058 157.812317,139.661011 158.524384,137.940964 
	C159.284973,139.404816 160.045547,140.868668 160.523499,142.745148 
	C159.829742,143.773804 159.418610,144.389847 159.007477,145.005890 
	C155.893219,148.278061 152.778992,151.550247 149.329193,154.838409 
z"/>
<path fill="#372820" opacity="1.000000" stroke="none" 
	d="
M147.831070,121.950981 
	C150.520279,125.749290 153.209473,129.547607 155.644165,133.664246 
	C154.588013,134.325394 153.786377,134.668228 152.992996,135.004669 
	C153.001251,134.998276 153.014999,134.981064 152.618805,134.996307 
	C150.142578,134.672119 148.062576,134.332687 145.990570,134.002930 
	C145.998596,134.012619 146.023743,134.004852 145.870239,133.737320 
	C145.136765,133.306702 144.556793,133.143616 143.985291,132.995117 
	C143.993744,133.009689 144.027283,133.006439 143.930054,132.809784 
	C143.465179,132.550873 143.097519,132.488617 142.729874,132.426376 
	C142.811188,132.681076 142.892487,132.935776 142.849319,133.414291 
	C142.486374,134.090240 142.247894,134.542374 141.676300,134.989136 
	C140.296524,134.667007 139.249878,134.350250 138.040710,133.814117 
	C137.582230,133.391388 137.286285,133.188049 136.993134,132.994446 
	C136.995926,133.004196 137.015671,133.008881 136.902069,132.786774 
	C136.583923,132.287476 136.318359,132.094131 135.993866,131.994339 
	C135.995972,132.004059 136.015442,132.008133 135.901550,131.786346 
	C135.582901,131.287994 135.317505,131.094650 134.993713,130.994293 
	C134.995941,131.004074 135.015518,131.008438 134.902313,130.786133 
	C134.587967,130.282654 134.322632,130.089767 133.994919,129.994507 
	C133.996719,130.003830 134.015747,130.003204 133.966736,129.652176 
	C132.377151,126.521935 130.836578,123.742714 129.225616,120.568726 
	C128.749313,117.798309 128.343384,115.422668 128.169037,112.820412 
	C129.226807,112.413055 130.052963,112.232323 131.051331,112.366714 
	C132.476852,114.433601 133.730194,116.185356 135.138123,118.226074 
	C136.185913,119.526520 137.079086,120.538010 137.356903,120.852615 
	C139.543976,119.081322 141.114395,116.871689 142.876526,116.706436 
	C144.085373,116.593056 145.566864,119.316322 146.912720,120.784187 
	C147.246262,121.147972 147.526398,121.560730 147.831070,121.950981 
z"/>
<path fill="#201E1E" opacity="1.000000" stroke="none" 
	d="
M121.000580,81.968803 
	C128.350098,83.026497 135.064972,84.622726 138.128250,92.910393 
	C139.997910,97.968712 143.239609,102.519882 145.584457,107.568924 
	C143.677780,106.044868 142.051682,104.250725 140.468918,102.504379 
	C135.961426,104.735176 136.072418,108.327232 137.707077,112.500542 
	C136.205139,112.702126 135.103424,112.849998 133.939606,112.627892 
	C132.584015,107.508545 131.290512,102.759178 129.821014,97.783554 
	C129.093597,97.032669 128.542175,96.508018 127.763763,95.760071 
	C126.063988,94.135193 124.591232,92.733627 123.057030,91.031204 
	C122.963242,90.528221 122.930893,90.326088 123.249481,89.956512 
	C125.804604,89.264519 128.008789,88.739975 130.212982,88.215431 
	C130.219330,87.852119 130.225677,87.488815 130.232025,87.125511 
	C128.163071,86.409393 126.094109,85.693283 123.866241,84.712379 
	C122.805084,83.621323 121.902832,82.795059 121.000580,81.968803 
z"/>
<path fill="#444444" opacity="1.000000" stroke="none" 
	d="
M124.004707,45.999237 
	C123.618576,46.452690 123.097115,47.361057 122.866302,47.292389 
	C118.291412,45.931400 113.719391,44.542957 109.229897,42.928890 
	C108.401337,42.631012 107.934212,41.327785 107.725113,41.050983 
	C105.171989,40.738056 102.870979,40.456028 99.789238,40.104008 
	C98.176826,40.026661 97.328659,39.908958 96.516212,40.030357 
	C92.135864,40.684891 90.277390,38.898411 90.951538,34.484001 
	C91.075790,33.670387 90.980217,32.823204 90.986099,31.991512 
	C103.857452,31.922617 116.098763,33.788036 125.699699,43.771759 
	C125.044090,44.800400 124.524399,45.399818 124.004707,45.999237 
M117.225906,43.324810 
	C117.469444,43.386623 117.712975,43.448441 117.956512,43.510258 
	C117.636879,43.340931 117.317238,43.171608 116.650642,42.621422 
	C116.179718,42.489902 115.708794,42.358379 115.237869,42.226860 
	C115.197311,42.431198 115.156754,42.635536 115.116196,42.839874 
	C115.744614,42.892494 116.373039,42.945114 117.225906,43.324810 
z"/>
<path fill="#211F1F" opacity="1.000000" stroke="none" 
	d="
M35.151100,109.010429 
	C38.727116,101.638390 41.749386,93.905891 46.184357,87.093002 
	C47.703426,84.759445 52.761047,84.729370 56.565346,84.051407 
	C56.908543,84.622459 56.888393,84.788994 56.562603,84.992035 
	C55.512260,85.135574 54.767567,85.242615 55.113365,85.192909 
	C55.113365,88.131042 55.113365,90.513763 54.790283,93.059402 
	C52.977509,94.819733 51.487812,96.417145 49.999756,98.264008 
	C50.001392,98.513458 50.006100,99.012352 50.002747,99.007103 
	C49.999393,99.001854 50.013107,99.006302 49.674576,99.099014 
	C47.700386,102.317848 46.064724,105.443962 43.989895,109.409431 
	C43.568794,107.481659 43.362309,106.536392 43.149067,105.560181 
	C40.273209,106.800804 37.712154,107.905617 35.151100,109.010429 
z"/>
<path fill="#454545" opacity="1.000000" stroke="none" 
	d="
M81.070152,40.037094 
	C78.027168,40.102882 74.794914,39.536613 71.984261,40.378269 
	C67.435944,41.740276 63.164597,44.027252 58.347294,45.576248 
	C57.583324,44.117477 57.248356,43.006104 56.913387,41.894730 
	C66.206818,33.950623 77.339806,31.944162 89.554817,32.408356 
	C90.014320,39.970108 90.014320,39.969852 83.067894,40.015244 
	C82.401962,40.019596 81.736069,40.029671 81.070152,40.037094 
z"/>
<path fill="#180806" opacity="1.000000" stroke="none" 
	d="
M103.976128,68.946480 
	C103.976128,68.946480 103.649094,68.813759 103.150925,68.702721 
	C101.424385,68.482277 100.196030,68.372871 98.506058,68.192924 
	C82.463852,67.491890 67.089653,68.887299 51.973583,72.816261 
	C51.979801,72.387108 51.986019,71.957962 51.992729,71.205421 
	C52.144878,70.604477 52.348625,70.372704 53.136047,70.071808 
	C54.113602,69.923668 54.559566,69.890434 55.005535,69.857201 
	C72.174660,65.084328 89.688087,65.042152 107.192627,66.719131 
	C115.022514,67.469254 122.710854,69.696983 130.734207,71.464821 
	C130.982971,71.999832 130.960938,72.324181 130.507904,73.042297 
	C127.559067,72.855804 125.041229,72.275543 122.175636,71.481033 
	C115.877296,70.493355 109.926712,69.719917 103.976128,68.946480 
z"/>
<path fill="#2A221E" opacity="1.000000" stroke="none" 
	d="
M35.095493,109.378113 
	C37.712154,107.905617 40.273209,106.800804 43.149067,105.560181 
	C43.362309,106.536392 43.568794,107.481659 43.989895,109.409431 
	C46.064724,105.443962 47.700386,102.317848 49.726662,99.419296 
	C52.023575,100.760605 53.929878,101.874359 55.907211,103.333832 
	C55.447670,105.687843 55.781315,107.338448 57.875881,108.534439 
	C57.930416,109.168808 57.983379,109.529648 57.992348,110.265686 
	C57.933170,110.892281 57.917980,111.143669 57.622635,111.226128 
	C56.594311,110.760483 55.846142,110.463768 54.909554,110.007339 
	C53.862789,110.570488 53.004444,111.293358 51.752098,112.014725 
	C46.965771,113.457748 42.604057,115.307930 37.735336,113.156693 
	C37.299152,113.495712 37.110989,113.744453 36.982914,114.012947 
	C36.990227,113.992775 37.027020,113.970688 36.794044,114.163834 
	C36.370518,114.916992 36.179970,115.477013 35.991352,116.019241 
	C35.993282,116.001457 36.028816,115.993744 36.028816,115.993744 
	C29.975203,114.817085 36.263504,111.686943 35.095493,109.378113 
z"/>
<path fill="#342720" opacity="1.000000" stroke="none" 
	d="
M37.930569,113.026474 
	C42.604057,115.307930 46.965771,113.457748 51.707489,112.331192 
	C52.021057,113.073402 51.985237,113.497635 51.666134,114.101654 
	C49.128780,116.855606 46.874706,119.429764 44.490421,122.176331 
	C44.240654,122.741142 44.121098,123.133553 43.652946,123.613144 
	C41.546284,124.824997 39.788219,125.949654 37.735260,126.819275 
	C33.932903,126.033920 30.425444,125.503616 26.917982,124.973305 
	C29.844662,122.175346 32.771343,119.377380 35.863419,116.286583 
	C36.028816,115.993744 35.993282,116.001457 36.224503,115.826828 
	C36.646152,115.091698 36.836586,114.531189 37.027020,113.970688 
	C37.027020,113.970688 36.990227,113.992775 37.193886,113.899521 
	C37.652328,113.599045 37.830006,113.339111 37.930569,113.026474 
z"/>
<path fill="#2C221E" opacity="1.000000" stroke="none" 
	d="
M134.001694,112.997864 
	C135.103424,112.849998 136.205139,112.702126 137.707077,112.500542 
	C136.072418,108.327232 135.961426,104.735176 140.468918,102.504379 
	C142.051682,104.250725 143.677780,106.044868 145.627594,107.924423 
	C147.197556,111.562424 148.572800,115.078758 149.589081,118.695946 
	C149.811722,119.488342 148.755692,120.639999 148.059814,121.788597 
	C147.526398,121.560730 147.246262,121.147972 146.912720,120.784187 
	C145.566864,119.316322 144.085373,116.593056 142.876526,116.706436 
	C141.114395,116.871689 139.543976,119.081322 137.356903,120.852615 
	C137.079086,120.538010 136.185913,119.526520 135.078125,117.872650 
	C134.576248,115.819466 134.288971,114.408669 134.001694,112.997864 
z"/>
<path fill="#3B2A21" opacity="1.000000" stroke="none" 
	d="
M26.634752,125.181839 
	C30.425444,125.503616 33.932903,126.033920 37.563278,127.112793 
	C33.778172,132.420517 32.246624,137.844604 33.130394,143.944458 
	C32.617363,143.963516 32.104332,143.982590 30.971832,143.892273 
	C29.893620,143.517288 29.434875,143.251648 28.976130,142.986023 
	C28.976130,142.986023 29.006304,142.983383 29.009878,142.997101 
	C27.978497,140.792664 27.052605,138.515152 25.884575,136.369461 
	C23.818825,132.574615 23.413443,128.932999 26.634752,125.181839 
z"/>
<path fill="#BD9E7C" opacity="1.000000" stroke="none" 
	d="
M56.868248,84.955528 
	C56.888393,84.788994 56.908543,84.622459 56.887856,84.207603 
	C59.735497,82.633110 62.525173,80.519699 65.532715,80.142250 
	C72.090157,79.319267 78.761520,79.431549 85.379242,79.041252 
	C86.933830,78.949570 88.460236,78.379791 90.559311,78.337311 
	C92.082130,79.424995 93.045242,80.205315 93.789017,81.216492 
	C91.948120,81.418900 90.278282,81.127716 88.714775,81.415054 
	C85.129013,82.074028 81.595108,83.015205 77.640182,83.845612 
	C71.686035,81.319283 67.069000,84.967834 61.744995,86.212189 
	C59.897572,85.835342 58.382912,85.395432 56.868248,84.955528 
z"/>
<path fill="#0F1214" opacity="1.000000" stroke="none" 
	d="
M94.008362,80.985641 
	C93.045242,80.205315 92.082130,79.424995 90.966629,78.367661 
	C100.279991,79.071678 109.745728,80.052711 119.761093,81.238396 
	C120.511383,81.679054 120.751228,81.864342 121.030281,81.998909 
	C121.030281,81.998909 120.998558,82.003517 120.999573,81.986160 
	C121.902832,82.795059 122.805084,83.621323 123.541641,84.791962 
	C122.592865,86.390450 121.809761,87.644554 120.805206,88.830307 
	C120.306389,88.599503 120.105957,88.369896 119.975311,87.727791 
	C118.977859,86.922348 117.987541,86.462250 116.721809,85.844475 
	C111.967697,84.782478 107.489006,83.878143 102.620789,82.946625 
	C99.490303,82.274841 96.749329,81.630241 94.008362,80.985641 
z"/>
<path fill="#BB8552" opacity="1.000000" stroke="none" 
	d="
M51.654175,72.973885 
	C67.089653,68.887299 82.463852,67.491890 98.502457,68.463745 
	C98.955299,69.165039 98.950150,69.524971 98.944992,69.884903 
	C85.666039,70.937813 72.339043,71.602165 59.131809,73.235153 
	C53.859322,73.887054 47.813690,74.784088 44.965191,81.182076 
	C42.642887,79.076416 44.321640,77.427528 46.281734,76.041161 
	C47.861679,74.923668 49.642860,74.090706 51.654175,72.973885 
z"/>
<path fill="#E58E97" opacity="1.000000" stroke="none" 
	d="
M83.921692,172.975983 
	C82.516823,171.427216 81.111954,169.878464 79.447456,168.139648 
	C76.382423,166.113098 74.826721,166.732544 75.043465,170.222443 
	C75.184837,172.498672 75.619057,174.756729 75.960167,177.422546 
	C74.111359,177.446060 72.224472,177.069931 70.467819,176.276810 
	C70.748489,172.909134 70.898926,169.958435 71.058334,166.617081 
	C71.811020,163.513336 72.554741,160.800247 73.616577,158.158691 
	C77.263695,163.145447 80.592697,168.060715 83.921692,172.975983 
z"/>
<path fill="#E58E97" opacity="1.000000" stroke="none" 
	d="
M105.440170,177.127045 
	C105.140099,174.944824 105.529465,172.653671 105.198212,170.471924 
	C105.004280,169.194611 103.661079,168.091782 102.472046,166.832199 
	C101.914299,166.533875 101.689995,166.349625 101.287491,165.776505 
	C103.413429,162.279816 105.688156,159.207779 108.346008,156.205292 
	C109.119179,158.200226 109.509232,160.125641 109.960815,162.433899 
	C110.065475,163.848160 110.108612,164.879593 109.877136,166.137863 
	C109.416641,168.622375 109.230766,170.880035 109.044891,173.137695 
	C109.048241,173.512314 109.051582,173.886917 109.138023,174.711365 
	C109.339630,175.411545 109.536942,175.546997 109.845947,175.643677 
	C109.878838,175.719818 109.950890,175.869217 109.950890,175.869232 
	C108.576241,176.267502 107.201591,176.665771 105.440170,177.127045 
z"/>
<path fill="#665951" opacity="1.000000" stroke="none" 
	d="
M152.984741,135.011063 
	C153.786377,134.668228 154.588013,134.325394 155.683197,134.010590 
	C156.747421,135.123947 157.518082,136.209274 158.406555,137.617767 
	C157.812317,139.661011 157.100266,141.381058 155.989426,142.746307 
	C152.387955,139.592087 149.185257,136.792664 145.982559,133.993240 
	C148.062576,134.332687 150.142578,134.672119 152.643188,135.107697 
	C153.063797,135.203827 153.341049,135.243637 153.341049,135.243637 
	C153.341049,135.243637 152.984741,135.011063 152.984741,135.011063 
z"/>
<path fill="#B98350" opacity="1.000000" stroke="none" 
	d="
M122.523392,71.695282 
	C125.041229,72.275543 127.559067,72.855804 130.461090,73.527695 
	C133.279404,75.827805 135.713531,78.036293 138.048584,80.605347 
	C132.558746,78.328712 127.167969,75.691528 121.603104,72.761482 
	C121.793800,72.210838 122.158592,71.953056 122.523392,71.695282 
z"/>
<path fill="#EE8D93" opacity="1.000000" stroke="none" 
	d="
M71.049362,167.007751 
	C70.898926,169.958435 70.748489,172.909134 70.278702,175.956482 
	C69.321960,174.354553 68.684563,172.655930 68.105438,170.585114 
	C68.163704,170.212906 68.155991,170.159256 68.446854,170.079224 
	C69.508255,169.002045 70.278809,168.004898 71.049362,167.007751 
z"/>
<path fill="#1E1918" opacity="1.000000" stroke="none" 
	d="
M81.386826,40.292587 
	C81.736069,40.029671 82.401962,40.019596 83.067894,40.015244 
	C90.014320,39.969852 90.014320,39.970108 90.013107,32.444115 
	C90.005486,31.997868 90.495804,31.982512 90.740952,31.987011 
	C90.980217,32.823204 91.075790,33.670387 90.951538,34.484001 
	C90.277390,38.898411 92.135864,40.684891 96.516212,40.030357 
	C97.328659,39.908958 98.176826,40.026661 99.448929,40.046890 
	C93.827393,40.222538 87.765442,40.385311 81.386826,40.292587 
z"/>
<path fill="#1D1512" opacity="1.000000" stroke="none" 
	d="
M115.091248,171.189987 
	C115.710106,171.880402 116.328964,172.570816 117.002502,173.529144 
	C115.231743,173.562485 113.406296,173.327911 111.303238,172.644257 
	C111.096947,171.452133 111.168274,170.709091 111.591644,169.956284 
	C112.647736,169.952591 113.351784,169.958679 114.055840,169.964752 
	C114.055840,169.964752 114.028961,170.007233 114.155609,170.222260 
	C114.551926,170.688187 114.821594,170.939087 115.091248,171.189987 
z"/>
<path fill="#F5929C" opacity="1.000000" stroke="none" 
	d="
M111.239609,169.966064 
	C111.168274,170.709091 111.096947,171.452133 110.956627,172.561935 
	C110.474396,172.949707 110.061165,172.970718 109.346405,173.064713 
	C109.230766,170.880035 109.416641,168.622375 110.138702,166.304184 
	C110.884209,166.822571 111.093544,167.401505 111.212257,168.308746 
	C111.160957,169.080078 111.200279,169.523071 111.239609,169.966064 
z"/>
<path fill="#313131" opacity="1.000000" stroke="none" 
	d="
M56.642120,42.045914 
	C57.248356,43.006104 57.583324,44.117477 57.980904,45.567051 
	C58.225986,46.643787 58.408459,47.382324 58.777794,48.877167 
	C56.956478,47.245098 55.737614,46.152882 54.169964,44.987350 
	C54.671074,44.008392 55.520966,43.102745 56.642120,42.045914 
z"/>
<path fill="#313131" opacity="1.000000" stroke="none" 
	d="
M124.429337,45.999031 
	C124.524399,45.399818 125.044090,44.800400 125.845497,44.080891 
	C126.761566,44.411800 127.395920,44.862797 128.155045,45.596626 
	C127.137863,45.919250 125.995911,45.959038 124.429337,45.999031 
z"/>
<path fill="#E58E97" opacity="1.000000" stroke="none" 
	d="
M109.977890,175.376770 
	C110.555099,175.560715 111.132317,175.744644 111.709526,175.928574 
	C111.709412,175.665298 111.709297,175.402039 111.709190,175.138763 
	C111.299713,175.282349 110.890244,175.425934 110.215836,175.719376 
	C109.950890,175.869217 109.878838,175.719818 109.890579,175.600342 
	C109.902321,175.480850 109.977890,175.376770 109.977890,175.376770 
z"/>
<path fill="#3B2A21" opacity="1.000000" stroke="none" 
	d="
M159.264954,144.886734 
	C159.418610,144.389847 159.829742,143.773804 160.520920,143.079239 
	C160.374786,143.589661 159.948624,144.178619 159.264954,144.886734 
z"/>
<path fill="#201E1E" opacity="1.000000" stroke="none" 
	d="
M120.914215,81.800049 
	C120.751228,81.864342 120.511383,81.679054 120.188805,81.251717 
	C120.356918,81.178055 120.600670,81.358322 120.914215,81.800049 
z"/>
<path fill="#F5929C" opacity="1.000000" stroke="none" 
	d="
M109.762100,175.211731 
	C109.977890,175.376770 109.902321,175.480850 109.857689,175.524200 
	C109.536942,175.546997 109.339630,175.411545 109.136047,174.992310 
	C109.216080,174.897888 109.381195,174.972305 109.762100,175.211731 
z"/>
<path fill="#FBC896" opacity="1.000000" stroke="none" 
	d="
M107.962891,156.135757 
	C105.688156,159.207779 103.413429,162.279816 101.085388,165.693146 
	C97.308151,168.358780 96.371483,172.302460 94.770599,176.506882 
	C93.583076,177.282181 92.808907,177.650986 92.034744,178.019806 
	C89.906052,177.445114 87.777367,176.870407 85.358643,176.042892 
	C84.785805,175.036499 84.503014,174.282898 84.070961,173.252655 
	C80.592697,168.060715 77.263695,163.145447 73.547150,157.743317 
	C73.140289,156.434875 73.008316,154.910294 73.117836,154.892746 
	C78.223610,154.074600 77.716660,149.437683 78.489983,146.907074 
	C86.463974,146.907074 93.768738,146.907074 101.634911,146.907074 
	C100.957397,151.217102 103.885277,154.076691 107.962891,156.135757 
z"/>
<path fill="#665348" opacity="1.000000" stroke="none" 
	d="
M92.298851,178.078598 
	C92.808907,177.650986 93.583076,177.282181 94.673424,176.770111 
	C94.571548,177.150620 94.153496,177.674377 93.385460,178.299622 
	C92.877968,178.313217 92.720459,178.225296 92.298851,178.078598 
z"/>
<path fill="#313131" opacity="1.000000" stroke="none" 
	d="
M54.988525,69.551453 
	C54.559566,69.890434 54.113602,69.923668 53.332260,69.945038 
	C53.376770,69.186935 53.756645,68.440697 54.136528,67.694458 
	C54.414856,68.211540 54.693184,68.728630 54.988525,69.551453 
z"/>
<path fill="#313131" opacity="1.000000" stroke="none" 
	d="
M56.957733,51.459908 
	C56.838425,51.158440 56.906963,50.860706 56.975502,50.562977 
	C57.032196,50.863197 57.088886,51.163422 56.957733,51.459908 
z"/>
<path fill="#313131" opacity="1.000000" stroke="none" 
	d="
M54.540077,58.957794 
	C54.841560,58.838482 55.139305,58.907032 55.437054,58.975578 
	C55.136818,59.032272 54.836582,59.088966 54.540077,58.957794 
z"/>
<path fill="#313131" opacity="1.000000" stroke="none" 
	d="
M126.957794,60.461250 
	C126.838120,60.158890 126.906830,59.860256 126.975540,59.561623 
	C127.032425,59.862740 127.089310,60.163860 126.957794,60.461250 
z"/>
<path fill="#010100" opacity="1.000000" stroke="none" 
	d="
M108.346008,156.205292 
	C103.885277,154.076691 100.957397,151.217102 101.634911,146.907074 
	C93.768738,146.907074 86.463974,146.907074 78.489983,146.907074 
	C77.716660,149.437683 78.223610,154.074600 73.117836,154.892746 
	C73.008316,154.910294 73.140289,156.434875 73.229034,157.671799 
	C72.554741,160.800247 71.811020,163.513336 71.058334,166.617081 
	C70.278809,168.004898 69.508255,169.002045 68.423729,170.092743 
	C68.701805,167.331375 69.293861,164.476486 69.855881,160.828156 
	C69.775772,158.417801 69.725693,156.800858 69.675621,155.183929 
	C68.815536,152.735458 67.955452,150.287003 67.044525,147.165161 
	C67.012436,146.272507 67.031189,146.053192 67.344070,146.042953 
	C70.596634,149.263382 73.140587,147.132370 75.802078,145.966110 
	C70.051163,140.503281 64.526268,135.255157 58.818230,129.821045 
	C58.064610,129.825607 57.494129,130.016144 56.644478,129.962082 
	C55.889622,127.829758 55.413944,125.942039 55.218521,123.989136 
	C55.898411,123.424339 56.298038,122.924728 56.697670,122.425117 
	C56.499485,122.295639 56.301300,122.166161 56.103115,122.036682 
	C55.712845,122.710983 55.322575,123.385277 54.686493,123.797142 
	C53.636456,121.063164 52.832222,118.591621 52.016304,115.753494 
	C51.986214,114.898567 51.967815,114.410217 51.949417,113.921867 
	C51.985237,113.497635 52.021057,113.073402 52.101486,112.332703 
	C53.004444,111.293358 53.862789,110.570488 54.877693,110.385590 
	C55.990536,113.292343 56.946823,115.661140 57.904678,118.408890 
	C58.984863,121.381622 59.955368,124.026825 61.160538,126.560402 
	C66.822136,138.462540 78.813660,146.190918 90.959679,145.412140 
	C105.121078,144.504135 114.694885,137.118805 120.120865,123.693100 
	C121.279526,121.147827 122.488487,118.946838 123.048828,116.591537 
	C123.462067,114.854538 123.028603,112.916115 122.965073,111.033630 
	C122.957733,110.999817 122.902351,111.041283 122.889069,110.688644 
	C123.211929,109.539406 123.548088,108.742805 124.257294,107.958595 
	C125.371696,108.013023 126.113037,108.055069 126.881119,108.472595 
	C127.251053,110.247726 127.594261,111.647377 127.937454,113.047028 
	C128.343384,115.422668 128.749313,117.798309 128.910217,120.575912 
	C128.456909,120.980804 128.248627,120.983719 127.819489,120.892799 
	C127.045517,121.853348 126.492386,122.907738 125.619873,123.824585 
	C124.222572,124.138206 122.553215,124.308800 122.180473,125.094498 
	C121.165749,127.233490 120.699257,129.632553 119.712860,132.081604 
	C114.326752,136.734375 109.243286,141.234116 103.538338,146.283981 
	C106.571503,147.279953 108.957489,148.063431 111.378136,148.858276 
	C112.455734,146.927155 113.259537,145.486694 114.265915,144.185272 
	C114.716423,144.546524 114.920235,144.803696 115.007988,145.433472 
	C114.534416,147.063828 114.132812,148.356537 113.731201,149.649246 
	C112.919014,153.499725 112.106819,157.350220 110.968399,161.625946 
	C110.394554,162.051132 110.146919,162.051086 109.899292,162.051056 
	C109.509232,160.125641 109.119179,158.200226 108.346008,156.205292 
M58.443935,125.867996 
	C57.943470,125.890190 57.443005,125.912384 56.942539,125.934586 
	C57.023525,126.198280 57.104515,126.461967 57.185505,126.725662 
	C57.591587,126.593468 57.997665,126.461273 58.443935,125.867996 
z"/>
<path fill="#402C21" opacity="1.000000" stroke="none" 
	d="
M66.026031,146.988785 
	C63.627472,147.314499 61.228912,147.640198 58.293758,147.722153 
	C57.154007,146.815872 56.550850,146.153351 55.947697,145.490829 
	C55.746983,145.633392 55.546272,145.775940 55.345562,145.918488 
	C55.547268,146.617310 55.748978,147.316132 55.950684,148.014954 
	C49.163494,147.843536 42.376308,147.672104 35.297436,146.884720 
	C35.027241,145.517197 35.048725,144.765656 35.390541,143.914551 
	C36.543262,142.436523 37.184582,140.881943 38.253803,139.721725 
	C39.774769,138.071289 41.612476,135.467484 43.310707,135.470703 
	C47.563648,135.478714 51.812519,136.734177 56.066849,137.467026 
	C57.358517,137.689529 58.662666,137.839569 60.209930,138.242767 
	C62.314518,141.304733 64.170273,144.146759 66.026031,146.988785 
M54.506458,143.459610 
	C54.506458,143.459610 54.534008,143.520782 54.506458,143.459610 
z"/>
<path fill="#0B0806" opacity="1.000000" stroke="none" 
	d="
M35.070213,144.014099 
	C35.048725,144.765656 35.027241,145.517197 35.004982,146.645203 
	C34.513130,146.149139 34.022053,145.276611 33.330681,144.174271 
	C32.246624,137.844604 33.778172,132.420517 37.858177,127.367828 
	C39.788219,125.949654 41.546284,124.824997 43.548149,123.983063 
	C42.139534,126.066605 40.363789,127.770691 38.859959,129.688049 
	C35.563038,133.891602 33.066212,138.376999 35.070213,144.014099 
z"/>
<path fill="#0A0705" opacity="1.000000" stroke="none" 
	d="
M66.250275,147.026276 
	C64.170273,144.146759 62.314518,141.304733 60.086266,137.914429 
	C58.783733,134.979660 57.853695,132.593170 56.923653,130.206696 
	C57.494129,130.016144 58.064610,129.825607 58.828228,130.192398 
	C59.719147,132.389343 60.286064,134.101028 61.141411,135.653839 
	C63.033974,139.089569 65.071526,142.445419 67.049942,145.833862 
	C67.031189,146.053192 67.012436,146.272507 66.957291,146.821075 
	C66.920891,147.150345 66.474518,147.063751 66.250275,147.026276 
z"/>
<path fill="#2C1D15" opacity="1.000000" stroke="none" 
	d="
M55.967987,148.426819 
	C55.748978,147.316132 55.547268,146.617310 55.345562,145.918488 
	C55.546272,145.775940 55.746983,145.633392 55.947697,145.490829 
	C56.550850,146.153351 57.154007,146.815872 57.893860,147.743011 
	C59.552464,153.113190 61.391788,158.209122 58.246552,163.273773 
	C57.336960,159.720505 56.680767,156.342361 56.024574,152.964203 
	C56.011482,151.589035 55.998386,150.213867 55.967987,148.426819 
z"/>
<path fill="#665348" opacity="1.000000" stroke="none" 
	d="
M69.391693,155.186798 
	C69.725693,156.800858 69.775772,158.417801 69.779846,160.435593 
	C68.321365,160.836456 66.908890,160.836456 65.185638,160.836456 
	C64.965149,158.838776 64.651756,155.999298 64.336708,153.144791 
	C65.948929,153.835785 67.528343,154.512726 69.391693,155.186798 
z"/>
<path fill="#402C21" opacity="1.000000" stroke="none" 
	d="
M56.016075,153.412735 
	C56.680767,156.342361 57.336960,159.720505 57.994617,163.554199 
	C57.996086,164.009750 58.000137,163.997818 57.789314,164.186798 
	C57.387268,164.909073 57.196049,165.442368 57.004826,165.975677 
	C56.482765,166.543427 55.960705,167.111191 54.664608,168.520737 
	C55.176830,162.929474 55.592205,158.395370 56.016075,153.412735 
z"/>
<path fill="#010100" opacity="1.000000" stroke="none" 
	d="
M28.975048,143.265564 
	C29.434875,143.251648 29.893620,143.517288 30.586952,143.903412 
	C30.205685,143.864304 29.589827,143.704712 28.975048,143.265564 
z"/>
<path fill="#2C1D15" opacity="1.000000" stroke="none" 
	d="
M57.221169,165.786316 
	C57.196049,165.442368 57.387268,164.909073 57.793694,164.183502 
	C57.818436,164.526474 57.627975,165.061707 57.221169,165.786316 
z"/>
<path fill="#432D21" opacity="1.000000" stroke="none" 
	d="
M114.047989,149.952362 
	C114.132812,148.356537 114.534416,147.063828 115.272980,145.236710 
	C117.043961,142.785095 118.477997,140.867889 120.255478,138.964996 
	C121.056709,138.991653 121.514496,139.003998 121.956581,139.417435 
	C121.984215,143.534332 122.027542,147.250168 122.070877,150.965988 
	C119.502174,150.729156 116.933472,150.492310 114.047989,149.952362 
z"/>
<path fill="#251913" opacity="1.000000" stroke="none" 
	d="
M122.312561,151.095398 
	C122.027542,147.250168 121.984215,143.534332 122.102539,139.115479 
	C122.840050,137.211914 123.415901,136.011398 124.040565,134.709106 
	C124.040565,140.066849 124.040565,145.046295 124.040565,150.025742 
	C124.036041,150.467651 124.031517,150.909561 124.012108,151.682663 
	C123.516235,151.750839 123.035240,151.487808 122.312561,151.095398 
z"/>
<path fill="#1D1512" opacity="1.000000" stroke="none" 
	d="
M109.960815,162.433899 
	C110.146919,162.051086 110.394554,162.051132 111.016930,162.059708 
	C111.880669,163.201233 112.369659,164.334244 112.674316,165.927933 
	C112.094284,166.919205 111.698578,167.449814 111.302872,167.980423 
	C111.093544,167.401505 110.884209,166.822571 110.413315,166.077332 
	C110.108612,164.879593 110.065475,163.848160 109.960815,162.433899 
z"/>
<path fill="#010100" opacity="1.000000" stroke="none" 
	d="
M111.212250,168.308746 
	C111.698578,167.449814 112.094284,166.919205 112.693024,166.248871 
	C113.264915,167.168976 113.633759,168.228806 114.029221,169.626709 
	C113.351784,169.958679 112.647736,169.952591 111.591644,169.956284 
	C111.200279,169.523071 111.160957,169.080078 111.212250,168.308746 
z"/>
<path fill="#251913" opacity="1.000000" stroke="none" 
	d="
M123.988091,152.342651 
	C124.485275,152.253525 124.984329,152.509460 125.738129,152.883072 
	C126.001457,153.751160 126.010033,154.501556 126.009308,155.625977 
	C126.000000,156.000000 126.001884,155.997284 126.001884,155.997284 
	C125.331245,154.894089 124.660599,153.790894 123.988091,152.342651 
z"/>
<path fill="#010100" opacity="1.000000" stroke="none" 
	d="
M114.976898,170.927765 
	C114.821594,170.939087 114.551926,170.688187 114.144005,170.199951 
	C114.291344,170.196945 114.576935,170.431244 114.976898,170.927765 
z"/>
<path fill="#432D21" opacity="1.000000" stroke="none" 
	d="
M127.060051,157.010422 
	C127.060051,157.010422 127.373688,157.240723 127.373688,157.240723 
	C127.373688,157.240723 127.107681,157.242172 127.057877,157.125275 
	C127.008064,157.008377 127.060051,157.010422 127.060051,157.010422 
z"/>
<path fill="#251913" opacity="1.000000" stroke="none" 
	d="
M127.009315,157.034363 
	C126.716774,156.897827 126.465591,156.685013 126.129456,156.209595 
	C126.001884,155.997284 126.000000,156.000000 125.998535,156.001068 
	C126.309189,156.133713 126.570068,156.332535 126.919876,156.804504 
	C127.060051,157.010422 127.008064,157.008377 127.009315,157.034363 
z"/>
<path fill="#AB7849" opacity="1.000000" stroke="none" 
	d="
M122.175636,71.481033 
	C122.158592,71.953056 121.793800,72.210838 121.217773,72.727509 
	C116.586815,72.326561 112.157784,71.721375 107.753441,70.971237 
	C106.544235,70.765297 105.408890,70.125679 104.107895,69.315765 
	C109.926712,69.719917 115.877296,70.493355 122.175636,71.481033 
z"/>
<path fill="#AB7849" opacity="1.000000" stroke="none" 
	d="
M99.314049,69.851624 
	C98.950150,69.524971 98.955299,69.165039 98.964058,68.534286 
	C100.196030,68.372871 101.424385,68.482277 102.988892,68.772629 
	C102.111053,69.241821 100.897072,69.530083 99.314049,69.851624 
z"/>
<path fill="#34241C" opacity="1.000000" stroke="none" 
	d="
M124.381065,149.952911 
	C124.040565,145.046295 124.040565,140.066849 124.040565,134.709106 
	C123.415901,136.011398 122.840050,137.211914 122.118240,138.714386 
	C121.514496,139.003998 121.056709,138.991653 120.327927,138.613342 
	C122.017708,133.485626 123.978485,128.723877 125.939255,123.962120 
	C126.492386,122.907738 127.045517,121.853348 127.859055,121.249062 
	C130.084900,124.467171 132.050323,127.235191 134.015747,130.003204 
	C134.015747,130.003204 133.996719,130.003830 134.103012,130.220673 
	C134.478043,130.627823 134.746780,130.818130 135.015518,131.008438 
	C135.015518,131.008438 134.995941,131.004074 135.101471,131.221039 
	C135.476501,131.628036 135.745972,131.818085 136.015442,132.008133 
	C136.015442,132.008133 135.995972,132.004059 136.101578,132.221054 
	C136.476685,132.628326 136.746170,132.818604 137.015671,133.008881 
	C137.015671,133.008881 136.995926,133.004196 137.128418,133.235260 
	C137.575012,133.655380 137.889130,133.844452 138.203232,134.033508 
	C139.249878,134.350250 140.296524,134.667007 141.893250,135.251587 
	C145.959976,138.013306 149.476624,140.507202 152.993271,143.001099 
	C152.855301,143.778946 152.717316,144.556808 152.675980,144.789856 
	C147.537888,142.418213 142.602127,139.949951 137.488098,137.933929 
	C136.418945,137.512451 134.236847,138.343643 133.350739,139.313248 
	C130.287643,142.664902 127.570442,146.332672 124.381065,149.952911 
z"/>
<path fill="#3F2D23" opacity="1.000000" stroke="none" 
	d="
M153.350708,143.000732 
	C149.476624,140.507202 145.959976,138.013306 142.226379,135.256943 
	C142.247894,134.542374 142.486374,134.090240 143.111908,133.362305 
	C143.675049,133.059830 143.851166,133.033127 144.027283,133.006439 
	C144.027283,133.006439 143.993744,133.009689 144.164474,133.238190 
	C144.898056,133.646072 145.460892,133.825455 146.023743,134.004852 
	C146.023743,134.004852 145.998596,134.012619 145.990570,134.002930 
	C149.185257,136.792664 152.387955,139.592087 155.715942,142.694412 
	C155.130203,142.998337 154.419174,142.999344 153.350708,143.000732 
z"/>
<path fill="#262220" opacity="1.000000" stroke="none" 
	d="
M128.169052,112.820412 
	C127.594261,111.647377 127.251053,110.247726 126.924179,108.130745 
	C126.854561,106.162384 126.577225,104.888649 126.722366,103.665024 
	C127.027740,101.090546 127.554733,98.542358 127.990768,95.983376 
	C128.542175,96.508018 129.093597,97.032669 129.566788,98.074852 
	C129.952087,103.078789 130.415604,107.565178 130.879120,112.051575 
	C130.052963,112.232323 129.226807,112.413055 128.169052,112.820412 
z"/>
<path fill="#100D0C" opacity="1.000000" stroke="none" 
	d="
M131.051331,112.366707 
	C130.415604,107.565178 129.952087,103.078789 129.742798,98.301102 
	C131.290512,102.759178 132.584015,107.508545 133.939606,112.627892 
	C134.288971,114.408669 134.576248,115.819466 134.923523,117.583694 
	C133.730194,116.185356 132.476852,114.433601 131.051331,112.366707 
z"/>
<path fill="#0B0806" opacity="1.000000" stroke="none" 
	d="
M133.966736,129.652176 
	C132.050323,127.235191 130.084900,124.467171 128.079910,121.342896 
	C128.248627,120.983719 128.456909,120.980804 128.980591,120.970688 
	C130.836578,123.742714 132.377151,126.521935 133.966736,129.652176 
z"/>
<path fill="#665951" opacity="1.000000" stroke="none" 
	d="
M145.870239,133.737320 
	C145.460892,133.825455 144.898056,133.646072 144.156021,133.223602 
	C144.556793,133.143616 145.136765,133.306702 145.870239,133.737320 
z"/>
<path fill="#665951" opacity="1.000000" stroke="none" 
	d="
M143.930054,132.809784 
	C143.851166,133.033127 143.675049,133.059830 143.236359,133.138489 
	C142.892487,132.935776 142.811188,132.681076 142.729874,132.426376 
	C143.097519,132.488617 143.465179,132.550873 143.930054,132.809784 
z"/>
<path fill="#0B0806" opacity="1.000000" stroke="none" 
	d="
M135.901550,131.786346 
	C135.745972,131.818085 135.476501,131.628036 135.099243,131.211258 
	C135.317505,131.094650 135.582901,131.287994 135.901550,131.786346 
z"/>
<path fill="#0B0806" opacity="1.000000" stroke="none" 
	d="
M134.902313,130.786133 
	C134.746780,130.818130 134.478043,130.627823 134.101212,130.211349 
	C134.322632,130.089767 134.587967,130.282654 134.902313,130.786133 
z"/>
<path fill="#0B0806" opacity="1.000000" stroke="none" 
	d="
M136.902069,132.786774 
	C136.746170,132.818604 136.476685,132.628326 136.099472,132.211334 
	C136.318359,132.094131 136.583923,132.287476 136.902069,132.786774 
z"/>
<path fill="#0B0806" opacity="1.000000" stroke="none" 
	d="
M138.040710,133.814117 
	C137.889130,133.844452 137.575012,133.655380 137.125626,133.225525 
	C137.286285,133.188049 137.582230,133.391388 138.040710,133.814117 
z"/>
<path fill="#434541" opacity="1.000000" stroke="none" 
	d="
M119.982445,88.073135 
	C120.105957,88.369896 120.306389,88.599503 121.054031,88.959396 
	C121.982391,89.479210 122.440475,89.801582 122.898552,90.123955 
	C122.930893,90.326088 122.963242,90.528221 122.817459,91.067596 
	C122.371605,91.589035 122.144791,91.814407 121.636627,91.940178 
	C120.222313,91.490524 119.130257,91.181648 117.862350,90.586395 
	C116.803307,90.231209 115.920120,90.162407 114.658112,89.941376 
	C110.868797,89.841873 107.458290,89.894608 103.675110,89.978340 
	C101.218239,90.686516 99.134033,91.363701 96.678764,92.024490 
	C95.813347,91.974434 95.319008,91.940773 94.971466,91.642715 
	C95.714348,90.849556 96.310410,90.320801 97.400444,89.353851 
	C92.558197,89.353851 88.328529,89.353851 84.098869,89.353851 
	C84.039345,89.734299 83.979820,90.114738 83.920303,90.495186 
	C85.492264,90.865601 87.064232,91.236008 88.743736,91.975403 
	C88.912125,92.593269 88.972977,92.842155 88.890327,93.334183 
	C87.459778,93.534492 86.062027,93.800468 84.907944,93.386734 
	C82.224159,92.424629 79.657837,91.134850 76.695282,89.756073 
	C71.232376,89.936211 66.118111,90.338142 60.649937,90.799889 
	C58.881554,91.584175 57.467072,92.308647 55.815117,93.017319 
	C55.577637,93.001511 55.113365,92.896477 55.113365,92.896477 
	C55.113365,90.513763 55.113365,88.131042 55.113365,85.192909 
	C54.767567,85.242615 55.512260,85.135574 56.562603,84.992035 
	C58.382912,85.395432 59.897572,85.835342 61.896458,86.490723 
	C62.917255,87.040413 63.445049,87.647781 63.991814,87.665375 
	C68.125710,87.798302 72.266914,87.934715 76.398018,87.810310 
	C78.059227,87.760284 79.700813,87.058739 81.785973,86.763229 
	C87.780190,86.877380 93.339760,86.882019 99.070282,87.191437 
	C99.921021,87.877533 100.619202,88.617317 101.277687,88.583519 
	C106.585541,88.311089 111.885933,87.893066 117.522537,87.651123 
	C118.565132,87.879532 119.273788,87.976334 119.982445,88.073135 
z"/>
<path fill="#0F1214" opacity="1.000000" stroke="none" 
	d="
M121.958885,92.080956 
	C122.144791,91.814407 122.371605,91.589035 122.878906,91.368439 
	C124.591232,92.733627 126.063988,94.135193 127.763763,95.760071 
	C127.554733,98.542358 127.027740,101.090546 126.722366,103.665024 
	C126.577225,104.888649 126.854561,106.162384 126.897446,107.755264 
	C126.113037,108.055069 125.371696,108.013023 124.300125,107.720146 
	C123.969910,107.469307 123.849762,106.999786 123.928947,106.573753 
	C123.325050,101.458801 122.641968,96.769875 121.958885,92.080956 
z"/>
<path fill="#080809" opacity="1.000000" stroke="none" 
	d="
M123.249481,89.956512 
	C122.440475,89.801582 121.982391,89.479210 121.275482,89.027756 
	C121.809761,87.644554 122.592865,86.390450 123.700562,85.056763 
	C126.094109,85.693283 128.163071,86.409393 130.232025,87.125511 
	C130.225677,87.488815 130.219330,87.852119 130.212982,88.215431 
	C128.008789,88.739975 125.804604,89.264519 123.249481,89.956512 
z"/>
<path fill="#333333" opacity="1.000000" stroke="none" 
	d="
M117.001457,42.997738 
	C116.373039,42.945114 115.744614,42.892494 115.116196,42.839874 
	C115.156754,42.635536 115.197311,42.431198 115.237869,42.226860 
	C115.708794,42.358379 116.179718,42.489902 116.825317,42.810711 
	C117.000000,43.000000 117.001457,42.997738 117.001457,42.997738 
z"/>
<path fill="#333333" opacity="1.000000" stroke="none" 
	d="
M116.998802,43.001141 
	C117.317238,43.171608 117.636879,43.340931 117.956512,43.510258 
	C117.712975,43.448441 117.469444,43.386623 117.113678,43.161274 
	C117.001457,42.997738 117.000000,43.000000 116.998802,43.001141 
z"/>
<path fill="#161516" opacity="1.000000" stroke="none" 
	d="
M54.790283,93.059402 
	C55.113365,92.896477 55.577637,93.001511 55.880459,93.347122 
	C56.067581,96.791183 55.951881,99.889648 55.836182,102.988106 
	C53.929878,101.874359 52.023575,100.760605 50.065189,99.326576 
	C50.013107,99.006302 49.999393,99.001854 50.213276,98.978088 
	C50.636921,98.802299 50.846684,98.650276 51.056446,98.498260 
	C50.703667,98.337029 50.350891,98.175789 49.998116,98.014549 
	C51.487812,96.417145 52.977509,94.819733 54.790283,93.059402 
z"/>
<path fill="#2A221E" opacity="1.000000" stroke="none" 
	d="
M49.999756,98.264008 
	C50.350891,98.175789 50.703667,98.337029 51.056446,98.498260 
	C50.846684,98.650276 50.636921,98.802299 50.216629,98.983337 
	C50.006100,99.012352 50.001392,98.513458 49.999756,98.264008 
z"/>
<path fill="#FAC796" opacity="1.000000" stroke="none" 
	d="
M55.907211,103.333832 
	C55.951881,99.889648 56.067581,96.791183 56.117935,93.362930 
	C57.467072,92.308647 58.881554,91.584175 60.650925,91.221748 
	C60.999718,92.985260 60.993622,94.386719 60.712265,95.995605 
	C60.734573,99.588867 62.404938,101.592926 66.486877,101.777069 
	C69.795853,101.434189 72.582886,101.009216 75.318680,100.483932 
	C75.566483,100.462105 75.865509,100.540596 76.832581,100.618713 
	C78.384705,100.567978 79.268776,100.517616 80.464035,100.442352 
	C80.994713,99.677650 81.639122,98.592667 81.364326,98.254395 
	C79.661072,96.157700 77.751312,94.228752 75.801987,92.005798 
	C76.143883,91.170944 76.593903,90.574402 77.043915,89.977859 
	C79.657837,91.134850 82.224159,92.424629 84.907944,93.386734 
	C86.062027,93.800468 87.459778,93.534492 89.300110,93.319748 
	C90.890335,94.170929 92.738243,95.221329 92.822937,96.398590 
	C93.178009,101.333717 93.667412,105.997406 99.606888,108.922279 
	C98.570335,106.684196 97.797966,105.045319 97.049858,103.395439 
	C95.334808,99.613106 93.377159,95.825356 97.049835,92.040878 
	C99.134033,91.363701 101.218239,90.686516 103.912628,90.052483 
	C104.522812,90.095627 105.009117,90.209221 105.023682,90.451546 
	C105.038246,90.693871 105.093117,91.176285 105.068245,91.420502 
	C105.043373,91.664726 105.021973,92.155228 104.808693,92.405800 
	C103.187523,93.793243 101.571465,94.761108 100.455818,96.135246 
	C99.860092,96.869019 99.700058,98.508881 100.112862,99.371613 
	C100.648834,100.491768 101.903748,101.962585 102.931282,102.029938 
	C106.907829,102.290543 110.929016,102.226578 114.910370,101.949791 
	C118.385384,101.708199 119.973602,98.799820 118.773727,95.174911 
	C118.511490,93.926117 118.215477,93.031815 117.953728,91.821762 
	C118.004715,91.294930 118.021454,91.083855 118.038193,90.872772 
	C119.130257,91.181648 120.222313,91.490524 121.636627,91.940178 
	C122.641968,96.769875 123.325050,101.458801 123.568253,106.504929 
	C118.301025,103.728569 113.369385,104.916855 109.909859,108.391174 
	C107.452080,110.859459 105.708992,115.188530 105.724495,118.677856 
	C105.743629,122.982849 109.940079,124.046448 113.913696,123.999557 
	C115.906609,123.976051 117.899841,123.979782 119.892929,123.971191 
	C114.694885,137.118805 105.121078,144.504135 90.959679,145.412140 
	C78.813660,146.190918 66.822136,138.462540 61.160538,126.560402 
	C59.955368,124.026825 58.984863,121.381622 58.270790,118.453796 
	C60.002213,118.700905 61.370964,119.277687 62.735622,119.863998 
	C66.999336,121.695854 70.614082,119.859558 72.330414,114.994232 
	C73.731491,114.258934 74.809029,113.680130 77.032539,112.485756 
	C74.557098,112.276154 73.357910,112.174614 71.886726,111.856903 
	C66.538612,106.079681 62.944550,105.195625 57.874310,108.260910 
	C55.781315,107.338448 55.447670,105.687843 55.907211,103.333832 
M77.797386,125.051369 
	C77.802170,126.385376 77.806953,127.719383 77.809509,129.782944 
	C80.618164,135.224533 86.010056,138.676285 91.412590,137.834656 
	C96.337242,137.067459 100.592018,134.947739 102.262276,128.969330 
	C102.206062,127.609337 102.149841,126.249344 101.824059,124.171524 
	C96.014648,123.740715 90.209587,123.115685 84.393456,122.985680 
	C82.390053,122.940887 80.359062,124.130295 77.797386,125.051369 
M79.102608,108.438179 
	C79.520264,109.179268 79.937920,109.920357 80.355576,110.661446 
	C81.512001,109.504128 82.668434,108.346809 83.824860,107.189499 
	C83.506508,106.779671 83.188156,106.369850 82.869804,105.960030 
	C81.765762,106.619949 80.661720,107.279877 79.102608,108.438179 
M86.532761,102.473892 
	C85.548073,102.672752 84.563393,102.871620 83.578705,103.070480 
	C83.800003,103.689362 84.021301,104.308243 84.242599,104.927124 
	C84.949493,104.314331 85.656387,103.701530 86.532761,102.473892 
M85.366951,98.015236 
	C85.748688,98.580048 86.130424,99.144852 86.512154,99.709656 
	C86.832550,99.408676 87.152939,99.107689 87.473335,98.806709 
	C86.904114,98.403603 86.334892,98.000496 85.366951,98.015236 
z"/>
<path fill="#F6C095" opacity="1.000000" stroke="none" 
	d="
M72.006866,115.150719 
	C70.614082,119.859558 66.999336,121.695854 62.735622,119.863998 
	C61.370964,119.277687 60.002213,118.700905 58.269226,118.074844 
	C56.946823,115.661140 55.990536,113.292343 55.066113,110.545303 
	C55.846142,110.463768 56.594311,110.760483 57.780060,111.536484 
	C61.957073,116.830193 67.345192,114.392792 72.006866,115.150719 
z"/>
<path fill="#F6C095" opacity="1.000000" stroke="none" 
	d="
M57.875881,108.534439 
	C62.944550,105.195625 66.538612,106.079681 71.636139,112.203964 
	C66.798943,113.315033 61.920464,113.956894 58.036339,109.890488 
	C57.983379,109.529648 57.930416,109.168808 57.875881,108.534439 
z"/>
<path fill="#3B3D3B" opacity="1.000000" stroke="none" 
	d="
M57.992348,110.265686 
	C61.920464,113.956894 66.798943,113.315033 71.908142,112.420135 
	C73.357910,112.174614 74.557098,112.276154 77.032539,112.485756 
	C74.809029,113.680130 73.731491,114.258934 72.330414,114.994232 
	C67.345192,114.392792 61.957073,116.830193 58.060211,111.705414 
	C57.917980,111.143669 57.933170,110.892281 57.992348,110.265686 
z"/>
<path fill="#010100" opacity="1.000000" stroke="none" 
	d="
M36.794044,114.163834 
	C36.836586,114.531189 36.646152,115.091698 36.222572,115.844612 
	C36.179970,115.477013 36.370518,114.916992 36.794044,114.163834 
z"/>
<path fill="#010100" opacity="1.000000" stroke="none" 
	d="
M37.735336,113.156693 
	C37.830006,113.339111 37.652328,113.599045 37.186573,113.919693 
	C37.110989,113.744453 37.299152,113.495712 37.735336,113.156693 
z"/>
<path fill="#31231C" opacity="1.000000" stroke="none" 
	d="
M56.644478,129.962082 
	C57.853695,132.593170 58.783733,134.979660 59.837437,137.694473 
	C58.662666,137.839569 57.358517,137.689529 56.066849,137.467026 
	C51.812519,136.734177 47.563648,135.478714 43.310707,135.470703 
	C41.612476,135.467484 39.774769,138.071289 38.253803,139.721725 
	C37.184582,140.881943 36.543262,142.436523 35.390545,143.914551 
	C33.066212,138.376999 35.563038,133.891602 38.859959,129.688049 
	C40.363789,127.770691 42.139534,126.066605 43.896748,123.895874 
	C44.121098,123.133553 44.240654,122.741142 44.895023,122.196121 
	C47.629223,120.069031 49.828609,118.094559 52.027992,116.120087 
	C52.832222,118.591621 53.636456,121.063164 54.719341,123.771332 
	C54.997997,124.007957 54.938263,124.054329 54.938263,124.054329 
	C55.413944,125.942039 55.889622,127.829758 56.644478,129.962082 
z"/>
<path fill="#0B0806" opacity="1.000000" stroke="none" 
	d="
M52.016304,115.753502 
	C49.828609,118.094559 47.629223,120.069031 45.025234,122.023712 
	C46.874706,119.429764 49.128780,116.855606 51.666130,114.101654 
	C51.967815,114.410217 51.986214,114.898567 52.016304,115.753502 
z"/>
<path fill="#E9BC8E" opacity="1.000000" stroke="none" 
	d="
M98.899338,86.886650 
	C93.339760,86.882019 87.780190,86.877380 81.672302,86.456764 
	C80.096046,85.307793 79.068100,84.574799 78.040154,83.841812 
	C81.595108,83.015205 85.129013,82.074028 88.714775,81.415054 
	C90.278282,81.127716 91.948120,81.418900 93.789017,81.216499 
	C96.749329,81.630241 99.490303,82.274841 102.566574,83.277740 
	C101.567696,84.719566 100.233513,85.803108 98.899338,86.886650 
z"/>
<path fill="#262220" opacity="1.000000" stroke="none" 
	d="
M77.640182,83.845612 
	C79.068100,84.574799 80.096046,85.307793 81.237663,86.347244 
	C79.700813,87.058739 78.059227,87.760284 76.398018,87.810310 
	C72.266914,87.934715 68.125710,87.798302 63.991814,87.665375 
	C63.445049,87.647781 62.917255,87.040413 62.229218,86.427658 
	C67.069000,84.967834 71.686035,81.319283 77.640182,83.845612 
z"/>
<path fill="#201E1E" opacity="1.000000" stroke="none" 
	d="
M99.070282,87.191437 
	C100.233513,85.803108 101.567696,84.719566 102.956093,83.304916 
	C107.489006,83.878143 111.967697,84.782478 116.747681,86.101135 
	C117.095505,86.850151 117.142052,87.184830 117.188599,87.519508 
	C111.885933,87.893066 106.585541,88.311089 101.277687,88.583519 
	C100.619202,88.617317 99.921021,87.877533 99.070282,87.191437 
z"/>
<path fill="#080809" opacity="1.000000" stroke="none" 
	d="
M117.522537,87.651123 
	C117.142052,87.184830 117.095505,86.850151 117.023087,86.258804 
	C117.987541,86.462250 118.977859,86.922348 119.975311,87.727791 
	C119.273788,87.976334 118.565132,87.879532 117.522537,87.651123 
z"/>
<path fill="#372820" opacity="1.000000" stroke="none" 
	d="
M152.992996,135.004669 
	C152.984741,135.011063 153.341049,135.243637 153.341049,135.243637 
	C153.341049,135.243637 153.063797,135.203827 153.039398,135.092438 
	C153.014999,134.981064 153.001251,134.998276 152.992996,135.004669 
z"/>
<path fill="#FBC697" opacity="1.000000" stroke="none" 
	d="
M120.120865,123.693100 
	C117.899841,123.979782 115.906609,123.976051 113.913696,123.999557 
	C109.940079,124.046448 105.743629,122.982849 105.724495,118.677856 
	C105.708992,115.188530 107.452080,110.859459 109.909859,108.391174 
	C113.369385,104.916855 118.301025,103.728569 123.489059,106.930962 
	C123.849762,106.999786 123.969910,107.469307 123.927078,107.707756 
	C123.548088,108.742805 123.211929,109.539406 122.518875,110.644455 
	C114.394424,108.150360 113.349091,108.568611 110.901146,115.458519 
	C115.701431,116.917503 120.757187,115.078400 122.972412,111.067436 
	C123.028603,112.916115 123.462067,114.854538 123.048828,116.591537 
	C122.488487,118.946838 121.279526,121.147827 120.120865,123.693100 
z"/>
<path fill="#31231C" opacity="1.000000" stroke="none" 
	d="
M114.063332,144.046234 
	C113.259537,145.486694 112.455734,146.927155 111.378136,148.858276 
	C108.957489,148.063431 106.571503,147.279953 103.538338,146.283981 
	C109.243286,141.234116 114.326752,136.734375 119.703674,132.458145 
	C118.019196,136.469849 116.041267,140.258041 114.063332,144.046234 
z"/>
<path fill="#31231C" opacity="1.000000" stroke="none" 
	d="
M67.344070,146.042953 
	C65.071526,142.445419 63.033974,139.089569 61.141411,135.653839 
	C60.286064,134.101028 59.719147,132.389343 59.011372,130.378387 
	C64.526268,135.255157 70.051163,140.503281 75.802078,145.966110 
	C73.140587,147.132370 70.596634,149.263382 67.344070,146.042953 
z"/>
<path fill="#0A0705" opacity="1.000000" stroke="none" 
	d="
M114.265915,144.185272 
	C116.041267,140.258041 118.019196,136.469849 120.006317,132.305115 
	C120.699257,129.632553 121.165749,127.233490 122.180473,125.094498 
	C122.553215,124.308800 124.222572,124.138206 125.619865,123.824585 
	C123.978485,128.723877 122.017708,133.485626 119.984482,138.599045 
	C118.477997,140.867889 117.043961,142.785095 115.344940,144.899078 
	C114.920235,144.803696 114.716423,144.546524 114.265915,144.185272 
z"/>
<path fill="#0A0705" opacity="1.000000" stroke="none" 
	d="
M58.423840,126.098534 
	C57.997665,126.461273 57.591587,126.593468 57.185505,126.725662 
	C57.104515,126.461967 57.023525,126.198280 56.942539,125.934586 
	C57.443005,125.912384 57.943470,125.890190 58.423840,126.098534 
z"/>
<path fill="#0A0705" opacity="1.000000" stroke="none" 
	d="
M54.965149,124.033768 
	C55.322575,123.385277 55.712845,122.710983 56.103115,122.036682 
	C56.301300,122.166161 56.499485,122.295639 56.697670,122.425117 
	C56.298038,122.924728 55.898411,123.424339 55.218521,123.989136 
	C54.938263,124.054329 54.997997,124.007957 54.965149,124.033768 
z"/>
<path fill="#2C1D15" opacity="1.000000" stroke="none" 
	d="
M54.520233,143.490204 
	C54.534008,143.520782 54.506458,143.459610 54.520233,143.490204 
z"/>
<path fill="#40332C" opacity="1.000000" stroke="none" 
	d="
M96.678764,92.024490 
	C93.377159,95.825356 95.334808,99.613106 97.049858,103.395439 
	C97.797966,105.045319 98.570335,106.684196 99.606888,108.922279 
	C93.667412,105.997406 93.178009,101.333717 92.822937,96.398590 
	C92.738243,95.221329 90.890335,94.170929 89.443619,93.076614 
	C88.972977,92.842155 88.912125,92.593269 88.777451,91.970772 
	C88.703621,91.597160 88.748810,91.648109 89.073654,91.739799 
	C90.253059,91.690308 91.107620,91.549126 92.243256,91.506332 
	C93.291115,91.705521 94.057884,91.806313 94.824661,91.907112 
	C95.319008,91.940773 95.813347,91.974434 96.678764,92.024490 
z"/>
<path fill="#F6C095" opacity="1.000000" stroke="none" 
	d="
M60.987526,95.788185 
	C60.993622,94.386719 60.999718,92.985260 61.004826,91.161934 
	C66.118111,90.338142 71.232376,89.936211 76.695282,89.756073 
	C76.593903,90.574402 76.143883,91.170944 75.429886,91.933167 
	C69.778694,90.788033 65.069702,92.083672 60.987526,95.788185 
z"/>
<path fill="#E49C98" opacity="1.000000" stroke="none" 
	d="
M105.009117,90.209221 
	C105.009117,90.209221 104.522812,90.095627 104.285301,90.021484 
	C107.458290,89.894608 110.868797,89.841873 114.840576,90.174706 
	C116.241058,91.086014 117.080261,91.611763 117.919472,92.137512 
	C118.215477,93.031815 118.511490,93.926117 118.446892,94.998215 
	C114.152435,92.348694 109.771446,91.455139 105.021973,92.155228 
	C105.021973,92.155228 105.043373,91.664726 105.330246,91.380402 
	C106.015892,90.944214 106.414673,90.792351 106.813454,90.640488 
	C106.212006,90.496735 105.610565,90.352974 105.009117,90.209221 
z"/>
<path fill="#F6C095" opacity="1.000000" stroke="none" 
	d="
M94.971466,91.642700 
	C94.057884,91.806313 93.291115,91.705521 91.929726,91.358566 
	C90.473015,91.290977 89.610909,91.469543 88.748810,91.648109 
	C88.748810,91.648109 88.703621,91.597160 88.669907,91.601791 
	C87.064232,91.236008 85.492264,90.865601 83.920303,90.495186 
	C83.979820,90.114738 84.039345,89.734299 84.098869,89.353851 
	C88.328529,89.353851 92.558197,89.353851 97.400444,89.353851 
	C96.310410,90.320801 95.714348,90.849556 94.971466,91.642700 
z"/>
<path fill="#FBC697" opacity="1.000000" stroke="none" 
	d="
M117.953728,91.821762 
	C117.080261,91.611763 116.241058,91.086014 115.219391,90.326935 
	C115.920120,90.162407 116.803307,90.231209 117.862350,90.586395 
	C118.021454,91.083855 118.004715,91.294930 117.953728,91.821762 
z"/>
<path fill="#DEDEDE" opacity="1.000000" stroke="none" 
	d="
M77.811737,129.053391 
	C77.806953,127.719383 77.802170,126.385376 78.460541,125.021393 
	C86.780342,124.957390 94.436981,124.923370 102.093628,124.889351 
	C102.149841,126.249344 102.206062,127.609337 101.706902,129.240295 
	C93.310455,132.475479 85.512596,133.236908 77.811737,129.053391 
z"/>
<path fill="#C07D7A" opacity="1.000000" stroke="none" 
	d="
M77.810623,129.418167 
	C85.512596,133.236908 93.310455,132.475479 101.565384,129.490295 
	C100.592018,134.947739 96.337242,137.067459 91.412590,137.834656 
	C86.010056,138.676285 80.618164,135.224533 77.810623,129.418167 
z"/>
<path fill="#0C0909" opacity="1.000000" stroke="none" 
	d="
M104.808693,92.405800 
	C109.771446,91.455139 114.152435,92.348694 118.413116,95.352699 
	C119.973602,98.799820 118.385384,101.708199 114.910370,101.949791 
	C110.929016,102.226578 106.907829,102.290543 102.931282,102.029938 
	C101.903748,101.962585 100.648834,100.491768 100.112862,99.371613 
	C99.700058,98.508881 99.860092,96.869019 100.455818,96.135246 
	C101.571465,94.761108 103.187523,93.793243 104.808693,92.405800 
M108.476654,96.405258 
	C105.277161,94.186302 103.555389,95.822205 101.737808,99.809799 
	C105.124046,100.219833 108.060287,100.802284 110.994598,100.792740 
	C111.877426,100.789871 113.506104,99.097862 113.458725,98.254601 
	C113.387688,96.990082 112.217804,95.723846 111.294518,94.647675 
	C111.173523,94.506638 109.748497,95.484383 108.476654,96.405258 
z"/>
<path fill="#1E1918" opacity="1.000000" stroke="none" 
	d="
M60.712269,95.995605 
	C65.069702,92.083672 69.778694,90.788033 75.538010,92.171478 
	C77.751312,94.228752 79.661072,96.157700 81.364326,98.254395 
	C81.639122,98.592667 80.994713,99.677650 80.432877,100.101250 
	C78.709747,98.531906 77.523277,96.718391 75.902786,96.156425 
	C73.446526,95.304619 70.346382,94.446297 68.183022,95.290443 
	C66.818405,95.822914 66.662834,99.453896 65.964928,101.694992 
	C62.404938,101.592926 60.734573,99.588867 60.712269,95.995605 
M64.876129,98.139709 
	C64.793053,97.688622 64.709984,97.237541 64.626907,96.786453 
	C64.398849,96.987404 63.952980,97.235542 63.984341,97.380310 
	C64.071877,97.784409 64.357071,98.145699 64.876129,98.139709 
z"/>
<path fill="#5A402E" opacity="1.000000" stroke="none" 
	d="
M66.486877,101.777069 
	C66.662834,99.453896 66.818405,95.822914 68.183022,95.290443 
	C70.346382,94.446297 73.446526,95.304619 75.902786,96.156425 
	C77.523277,96.718391 78.709747,98.531906 80.121704,100.126144 
	C79.268776,100.517616 78.384705,100.567978 76.830612,100.631439 
	C75.863052,100.662148 75.599487,100.642052 75.369919,100.584244 
	C72.582886,101.009216 69.795853,101.434189 66.486877,101.777069 
z"/>
<path fill="#AB6361" opacity="1.000000" stroke="none" 
	d="
M101.958847,124.530441 
	C94.436981,124.923370 86.780342,124.957390 78.732185,124.873657 
	C80.359062,124.130295 82.390053,122.940887 84.393456,122.985680 
	C90.209587,123.115685 96.014648,123.740715 101.958847,124.530441 
z"/>
<path fill="#F6C095" opacity="1.000000" stroke="none" 
	d="
M79.330139,108.188988 
	C80.661720,107.279877 81.765762,106.619949 82.869804,105.960030 
	C83.188156,106.369850 83.506508,106.779671 83.824860,107.189499 
	C82.668434,108.346809 81.512001,109.504128 80.355576,110.661446 
	C79.937920,109.920357 79.520264,109.179268 79.330139,108.188988 
z"/>
<path fill="#F6C095" opacity="1.000000" stroke="none" 
	d="
M86.448021,102.781311 
	C85.656387,103.701530 84.949493,104.314331 84.242599,104.927124 
	C84.021301,104.308243 83.800003,103.689362 83.578705,103.070480 
	C84.563393,102.871620 85.548073,102.672752 86.448021,102.781311 
z"/>
<path fill="#F6C095" opacity="1.000000" stroke="none" 
	d="
M85.566307,97.806320 
	C86.334892,98.000496 86.904114,98.403603 87.473328,98.806702 
	C87.152939,99.107689 86.832550,99.408676 86.512161,99.709656 
	C86.130424,99.144852 85.748688,98.580048 85.566307,97.806320 
z"/>
<path fill="#1E1918" opacity="1.000000" stroke="none" 
	d="
M75.318680,100.483932 
	C75.599487,100.642052 75.863052,100.662148 76.162575,100.631813 
	C75.865509,100.540596 75.566483,100.462105 75.318680,100.483932 
z"/>
<path fill="#FBC697" opacity="1.000000" stroke="none" 
	d="
M105.023682,90.451546 
	C105.610565,90.352974 106.212006,90.496735 106.813454,90.640488 
	C106.414673,90.792351 106.015892,90.944214 105.355118,91.136185 
	C105.093117,91.176285 105.038246,90.693871 105.023682,90.451546 
z"/>
<path fill="#F4BD92" opacity="1.000000" stroke="none" 
	d="
M122.965073,111.033630 
	C120.757187,115.078400 115.701431,116.917503 110.901146,115.458519 
	C113.349091,108.568611 114.394424,108.150360 122.532166,110.997093 
	C122.902351,111.041283 122.957733,110.999817 122.965073,111.033630 
z"/>
<path fill="#434541" opacity="1.000000" stroke="none" 
	d="
M89.073654,91.739799 
	C89.610909,91.469543 90.473015,91.290977 91.648643,91.260178 
	C91.107620,91.549126 90.253059,91.690308 89.073654,91.739799 
z"/>
<path fill="#62402B" opacity="1.000000" stroke="none" 
	d="
M108.702057,96.174599 
	C109.748497,95.484383 111.173523,94.506638 111.294518,94.647675 
	C112.217804,95.723846 113.387688,96.990082 113.458725,98.254601 
	C113.506104,99.097862 111.877426,100.789871 110.994598,100.792740 
	C108.060287,100.802284 105.124046,100.219833 101.737808,99.809799 
	C103.555389,95.822205 105.277161,94.186302 108.702057,96.174599 
z"/>
<path fill="#5A402E" opacity="1.000000" stroke="none" 
	d="
M64.720184,98.331802 
	C64.357071,98.145699 64.071877,97.784409 63.984341,97.380310 
	C63.952980,97.235542 64.398849,96.987404 64.626907,96.786453 
	C64.709984,97.237541 64.793053,97.688622 64.720184,98.331802 
z"/>
</svg>