<svg version="1.1" id="Layer_1" xmlns="http://www.w3.org/2000/svg" xmlns:xlink="http://www.w3.org/1999/xlink" x="0px" y="0px"
	 width="100%" viewBox="0 0 128 128" enable-background="new 0 0 128 128" xml:space="preserve">

	d="
M86.000000,129.000000 
	C57.333332,129.000000 29.166666,129.000000 1.000000,129.000000 
	C1.000000,86.333336 1.000000,43.666668 1.000000,1.000000 
	C43.666668,1.000000 86.333336,1.000000 129.000000,1.000000 
	C129.000000,43.666668 129.000000,86.333336 129.000000,129.000000 
	C114.833336,129.000000 100.666664,129.000000 86.000000,129.000000 
M50.005196,42.689323 
	C50.292267,43.143204 50.579342,43.597088 51.037674,44.893017 
	C55.576523,45.387016 60.115372,45.881012 64.654221,46.375011 
	C65.041893,45.878147 65.429558,45.381283 65.817223,44.884422 
	C64.585205,41.909779 63.353180,38.935139 61.999748,35.276745 
	C60.702606,34.168690 59.405468,33.060638 57.789112,31.317739 
	C55.875420,30.505754 53.961723,29.693768 51.629421,28.241131 
	C50.103569,28.125875 48.577717,28.010620 46.615284,27.228743 
	C44.074070,27.541273 41.532856,27.853802 38.170773,28.032375 
	C35.544144,28.661812 32.726337,28.880659 30.326845,29.997910 
	C23.216354,33.308693 19.721041,40.785309 21.992449,47.821407 
	C22.648464,49.251526 23.304480,50.681648 24.182339,52.676453 
	C25.085112,53.468376 25.987883,54.260300 27.145479,55.637932 
	C28.479273,56.578186 29.813066,57.518440 31.736000,58.922760 
	C33.811954,59.654099 35.887913,60.385437 38.322559,61.711617 
	C39.848507,62.159359 41.374451,62.607101 43.274940,63.649498 
	C44.814480,64.118172 46.354015,64.586853 48.166451,65.633522 
	C49.069489,66.771111 49.972523,67.908707 50.917980,69.765999 
	C48.940063,71.567070 46.962147,73.368149 44.122517,75.053574 
	C42.096088,74.997467 40.069660,74.941360 37.787811,74.338020 
	C36.893608,73.544556 35.999405,72.751099 35.010540,71.184479 
	C34.792587,68.024803 33.424084,66.303520 29.082964,67.042732 
	C26.184380,67.042732 23.285795,67.042732 19.141344,67.042732 
	C20.213348,70.548859 21.054558,73.300140 21.997215,76.724403 
	C23.319006,78.186539 24.640795,79.648666 26.248127,81.715744 
	C27.805235,82.492874 29.362343,83.270004 31.355001,84.660118 
	C33.566181,85.048759 35.777363,85.437401 38.677025,86.200317 
	C40.446915,86.411469 42.216805,86.622620 44.787796,86.960533 
	C46.855705,86.587395 48.923615,86.214256 51.742935,85.950180 
	C59.087292,84.250595 65.286873,79.752533 64.949562,71.161949 
	C64.654205,69.073158 64.358849,66.984360 64.006065,64.196632 
	C63.021065,62.760891 62.036060,61.325153 60.768242,59.322845 
	C59.536182,58.174290 58.304119,57.025734 56.707596,55.289654 
	C54.801350,54.580555 52.895100,53.871456 50.344769,52.834183 
	C48.580334,52.182068 46.815899,51.529953 44.674706,50.284065 
	C43.133053,49.817772 41.591404,49.351479 39.741444,48.318867 
	C38.512814,47.510288 37.284180,46.701714 36.007019,45.119862 
	C36.131912,38.923882 40.603737,38.939785 45.686600,38.993511 
	C47.112595,40.031048 48.538593,41.068584 50.005196,42.689323 
M78.400352,84.632896 
	C79.914841,85.102470 81.429337,85.572044 83.538536,86.541573 
	C86.040581,86.397896 88.542633,86.254227 91.659660,85.980316 
	C93.159370,85.640755 94.659081,85.301201 96.031090,85.683617 
	C94.008385,87.844963 91.985687,90.006302 89.147949,92.084755 
	C86.789124,91.684425 84.430290,91.284096 81.705612,90.320457 
	C77.919060,87.127968 75.472244,88.772163 72.344910,96.823921 
	C73.515717,97.566788 74.737999,98.342316 76.443573,99.625298 
	C78.954575,100.356346 81.465584,101.087395 84.550758,102.125084 
	C85.367004,102.364136 86.183250,102.603195 87.815475,102.913986 
	C90.204109,102.559731 92.592735,102.205467 95.715042,101.807816 
	C103.507004,99.803001 109.344208,95.934738 109.907104,86.110550 
	C109.886772,84.073120 109.866440,82.035698 109.926498,79.141357 
	C109.898354,77.423599 109.870201,75.705849 109.922859,73.115417 
	C109.894226,71.073288 109.865601,69.031158 109.920242,66.116508 
	C109.890907,64.073486 109.861572,62.030464 109.922943,59.114906 
	C109.891464,57.070992 109.859985,55.027081 109.924965,52.112442 
	C109.891991,50.070808 109.859016,48.029175 109.881851,45.197742 
	C109.038712,41.244953 106.009392,43.676098 103.159470,43.071587 
	C100.787582,43.675003 98.415688,44.278423 95.659714,44.350323 
	C94.458992,43.856373 93.258270,43.362427 91.561615,42.285378 
	C90.035591,42.247589 88.509560,42.209801 86.169502,42.060963 
	C76.810173,42.363075 70.228027,49.325562 69.784805,59.693520 
	C69.845230,62.495602 69.905655,65.297684 70.007782,68.731628 
	C70.060387,69.149902 70.112999,69.568176 70.051544,70.703392 
	C70.332535,71.815552 70.613518,72.927719 71.012077,74.730209 
	C71.994598,76.523209 72.977112,78.316200 74.258072,80.665642 
	C75.492554,81.812958 76.727028,82.960281 78.400352,84.632896 
z"/>
<path fill="#609322" opacity="1.000000" stroke="none" 
	d="
M61.051056,59.889420 
	C62.036060,61.325153 63.021065,62.760891 63.849533,64.831512 
	C60.834904,68.438087 57.920761,71.358307 55.132423,74.394073 
	C51.366543,78.494133 47.697365,82.683006 43.986694,86.833771 
	C42.216805,86.622620 40.446915,86.411469 38.432983,85.696579 
	C40.454033,81.851639 42.719128,78.510429 44.984226,75.169220 
	C46.962147,73.368149 48.940063,71.567070 51.234249,69.312759 
	C54.717365,65.869484 57.884212,62.879452 61.051056,59.889420 
z"/>
<path fill="#38570E" opacity="1.000000" stroke="none" 
	d="
M109.832245,59.987442 
	C109.861572,62.030464 109.890907,64.073486 109.564438,66.653320 
	C103.153976,73.496941 97.099327,79.803749 91.044678,86.110550 
	C88.542633,86.254227 86.040581,86.397896 83.473709,86.049744 
	C85.934624,82.427170 88.460365,79.296417 91.307800,75.985336 
	C94.517601,74.935699 96.507210,73.367981 96.503540,69.946175 
	C98.574776,68.765869 100.377121,67.720802 102.005463,66.452370 
	C104.673874,64.373749 107.229218,62.149990 109.832245,59.987442 
z"/>
<path fill="#8ED83A" opacity="1.000000" stroke="none" 
	d="
M23.960495,52.111767 
	C23.304480,50.681648 22.648464,49.251526 22.155790,47.176453 
	C24.257349,44.476433 26.233582,42.455677 28.125660,40.358986 
	C31.772787,36.317448 35.372353,32.232990 38.991642,28.166330 
	C41.532856,27.853802 44.074070,27.541273 46.649826,27.847532 
	C39.109745,36.348137 31.535120,44.229954 23.960495,52.111767 
z"/>
<path fill="#89CF37" opacity="1.000000" stroke="none" 
	d="
M24.071415,52.394112 
	C31.535120,44.229954 39.109745,36.348137 46.868118,28.180843 
	C48.577717,28.010620 50.103569,28.125875 51.745094,28.898203 
	C49.570564,32.648067 47.280365,35.740864 44.990166,38.833656 
	C40.603737,38.939785 36.131912,38.923882 35.847504,45.792007 
	C32.755543,49.326847 29.823097,52.189533 26.890652,55.052223 
	C25.987883,54.260300 25.085112,53.468376 24.071415,52.394112 
z"/>
<path fill="#284006" opacity="1.000000" stroke="none" 
	d="
M94.981369,101.851212 
	C92.592735,102.205467 90.204109,102.559731 87.505310,102.564598 
	C91.144501,97.962006 94.960518,93.573906 99.084709,89.497589 
	C102.482330,86.139412 106.245148,83.150719 109.846115,79.998276 
	C109.866440,82.035698 109.886772,84.073120 109.564453,86.647186 
	C104.474998,92.072960 99.728180,96.962090 94.981369,101.851212 
z"/>
<path fill="#2C4508" opacity="1.000000" stroke="none" 
	d="
M109.886307,79.569817 
	C106.245148,83.150719 102.482330,86.139412 99.084709,89.497589 
	C94.960518,93.573906 91.144501,97.962006 87.097321,102.528732 
	C86.183250,102.603195 85.367004,102.364136 84.306885,101.630676 
	C86.029663,98.146736 87.996323,95.157196 89.962982,92.167648 
	C91.985687,90.006302 94.008385,87.844963 96.410492,85.232758 
	C98.190018,83.690804 99.622017,82.637871 100.983734,81.500771 
	C103.955467,79.019249 106.891464,76.494926 109.842056,73.988091 
	C109.870201,75.705849 109.898354,77.423599 109.886307,79.569817 
z"/>
<path fill="#59891F" opacity="1.000000" stroke="none" 
	d="
M86.983536,42.172016 
	C88.509560,42.209801 90.035591,42.247589 91.714035,42.914783 
	C86.356850,49.416866 80.794151,55.241070 75.365753,61.187862 
	C73.400452,63.340839 71.756599,65.787247 69.966080,68.099762 
	C69.905655,65.297684 69.845230,62.495602 70.294556,59.241852 
	C76.197388,53.250793 81.590462,47.711407 86.983536,42.172016 
z"/>
<path fill="#54811C" opacity="1.000000" stroke="none" 
	d="
M69.986931,68.415695 
	C71.756599,65.787247 73.400452,63.340839 75.365753,61.187862 
	C80.794151,55.241070 86.356850,49.416866 91.962006,43.206333 
	C93.258270,43.362427 94.458992,43.856373 95.758820,44.951439 
	C94.235558,47.977627 92.613174,50.402702 90.640152,52.908257 
	C88.137611,54.988823 85.985710,56.988907 83.517136,59.089638 
	C81.805466,60.288662 80.383255,61.354465 79.021042,62.492100 
	C76.053024,64.970810 73.115555,67.486107 70.165604,69.986450 
	C70.112999,69.568176 70.060387,69.149902 69.986931,68.415695 
z"/>
<path fill="#95E13C" opacity="1.000000" stroke="none" 
	d="
M38.581207,28.099354 
	C35.372353,32.232990 31.772787,36.317448 28.125660,40.358986 
	C26.233582,42.455677 24.257349,44.476433 22.137074,46.817673 
	C19.721041,40.785309 23.216354,33.308693 30.326845,29.997910 
	C32.726337,28.880659 35.544144,28.661812 38.581207,28.099354 
z"/>
<path fill="#59891F" opacity="1.000000" stroke="none" 
	d="
M44.387245,86.897156 
	C47.697365,82.683006 51.366543,78.494133 55.132423,74.394073 
	C57.920761,71.358307 60.834904,68.438087 63.878250,65.180984 
	C64.358849,66.984360 64.654205,69.073158 64.578163,71.677147 
	C59.801685,76.741936 55.396606,81.291534 50.991524,85.841125 
	C48.923615,86.214256 46.855705,86.587395 44.387245,86.897156 
z"/>
<path fill="#324E0B" opacity="1.000000" stroke="none" 
	d="
M109.882462,73.551758 
	C106.891464,76.494926 103.955467,79.019249 100.983734,81.500771 
	C99.622017,82.637871 98.190018,83.690804 96.474342,84.871773 
	C94.659081,85.301201 93.159370,85.640755 91.352173,86.045433 
	C97.099327,79.803749 103.153976,73.496941 109.522797,67.089584 
	C109.865601,69.031158 109.894226,71.073288 109.882462,73.551758 
z"/>
<path fill="#609322" opacity="1.000000" stroke="none" 
	d="
M86.576523,42.116489 
	C81.590462,47.711407 76.197388,53.250793 70.488182,58.886494 
	C70.228027,49.325562 76.810173,42.363075 86.576523,42.116489 
z"/>
<path fill="#3E6111" opacity="1.000000" stroke="none" 
	d="
M109.877594,59.551174 
	C107.229218,62.149990 104.673874,64.373749 102.005463,66.452370 
	C100.377121,67.720802 98.574776,68.765869 96.458893,69.510666 
	C96.098434,67.067863 96.129669,65.025658 96.478729,62.888294 
	C98.427208,61.466465 100.014244,60.081276 101.698463,58.826538 
	C104.374374,56.832973 107.115166,54.926487 109.828506,52.983170 
	C109.859985,55.027081 109.891464,57.070992 109.877594,59.551174 
z"/>
<path fill="#74B12D" opacity="1.000000" stroke="none" 
	d="
M62.121159,35.960495 
	C63.353180,38.935139 64.585205,41.909779 65.817223,44.884422 
	C65.429558,45.381283 65.041893,45.878147 64.654221,46.375011 
	C60.115372,45.881012 55.576523,45.387016 51.290787,44.379677 
	C55.069656,41.231056 58.595406,38.595776 62.121159,35.960495 
z"/>
<path fill="#324E0B" opacity="1.000000" stroke="none" 
	d="
M89.555466,92.126205 
	C87.996323,95.157196 86.029663,98.146736 84.019791,101.477356 
	C81.465584,101.087395 78.954575,100.356346 76.296036,99.034805 
	C78.122810,95.924118 80.097137,93.403938 82.071465,90.883759 
	C84.430290,91.284096 86.789124,91.684425 89.555466,92.126205 
z"/>
<path fill="#446A14" opacity="1.000000" stroke="none" 
	d="
M109.876740,52.547806 
	C107.115166,54.926487 104.374374,56.832973 101.698463,58.826538 
	C100.014244,60.081276 98.427208,61.466465 96.431221,62.461521 
	C96.101562,60.414192 96.137260,58.698475 96.489502,56.886189 
	C98.201157,55.694580 99.626076,54.635147 100.985275,53.497215 
	C103.949928,51.015175 106.881157,48.493195 109.826050,45.987541 
	C109.859016,48.029175 109.891991,50.070808 109.876740,52.547806 
z"/>
<path fill="#74B12D" opacity="1.000000" stroke="none" 
	d="
M25.962585,81.110802 
	C24.640795,79.648666 23.319006,78.186539 22.231806,76.204231 
	C24.973608,72.845047 27.480820,70.006042 29.988029,67.167030 
	C33.424084,66.303520 34.792587,68.024803 34.771423,71.752380 
	C31.675732,75.250458 28.819159,78.180634 25.962585,81.110802 
z"/>
<path fill="#7BBC30" opacity="1.000000" stroke="none" 
	d="
M40.049755,48.885185 
	C41.591404,49.351479 43.133053,49.817772 44.821152,50.945305 
	C42.633022,54.776619 40.298443,57.946697 37.963867,61.116776 
	C35.887913,60.385437 33.811954,59.654099 31.776896,58.483337 
	C34.561779,54.991005 37.305767,51.938095 40.049755,48.885185 
z"/>
<path fill="#4B7418" opacity="1.000000" stroke="none" 
	d="
M73.959625,80.109200 
	C72.977112,78.316200 71.994598,76.523209 71.289932,74.291611 
	C73.248909,72.531960 74.885864,71.149307 76.621902,69.904877 
	C78.985420,68.210655 81.424568,66.621948 83.889099,65.413048 
	C84.004852,67.551804 84.062790,69.265503 83.783424,71.068054 
	C80.283966,74.141006 77.121796,77.125107 73.959625,80.109200 
z"/>
<path fill="#679E26" opacity="1.000000" stroke="none" 
	d="
M44.553371,75.111397 
	C42.719128,78.510429 40.454033,81.851639 38.088737,85.509445 
	C35.777363,85.437401 33.566181,85.048759 31.371891,84.112411 
	C33.606934,80.671555 35.825085,77.778404 38.043232,74.885254 
	C40.069660,74.941360 42.096088,74.997467 44.553371,75.111397 
z"/>
<path fill="#6EA829" opacity="1.000000" stroke="none" 
	d="
M47.893555,65.055527 
	C46.354015,64.586853 44.814480,64.118172 43.325211,63.112701 
	C45.913269,59.438053 48.451061,56.300205 50.988853,53.162357 
	C52.895100,53.871456 54.801350,54.580555 56.704178,55.869583 
	C53.765026,59.318184 50.829288,62.186855 47.893555,65.055527 
z"/>
<path fill="#223603" opacity="1.000000" stroke="none" 
	d="
M95.348206,101.829514 
	C99.728180,96.962090 104.474998,92.072960 109.534958,87.083054 
	C109.344208,95.934738 103.507004,99.803001 95.348206,101.829514 
z"/>
<path fill="#679E26" opacity="1.000000" stroke="none" 
	d="
M48.029999,65.344521 
	C50.829288,62.186855 53.765026,59.318184 56.886410,56.163349 
	C58.304119,57.025734 59.536182,58.174290 60.909653,59.606133 
	C57.884212,62.879452 54.717365,65.869484 51.213039,68.952904 
	C49.972523,67.908707 49.069489,66.771111 48.029999,65.344521 
z"/>
<path fill="#4B7418" opacity="1.000000" stroke="none" 
	d="
M109.853943,45.592644 
	C106.881157,48.493195 103.949928,51.015175 100.985275,53.497215 
	C99.626076,54.635147 98.201157,55.694580 96.417488,56.579002 
	C95.677284,55.614990 95.325630,54.861595 95.152374,53.820522 
	C98.214935,50.081150 101.099106,46.629459 103.983269,43.177765 
	C106.009392,43.676098 109.038712,41.244953 109.853943,45.592644 
z"/>
<path fill="#446A14" opacity="1.000000" stroke="none" 
	d="
M74.108849,80.387421 
	C77.121796,77.125107 80.283966,74.141006 84.036285,71.253220 
	C85.452400,72.555962 86.278351,73.762383 86.817657,75.148392 
	C83.674515,78.254517 80.818008,81.181053 77.961510,84.107597 
	C76.727028,82.960281 75.492554,81.812958 74.108849,80.387421 
z"/>
<path fill="#6EA829" opacity="1.000000" stroke="none" 
	d="
M37.915520,74.611633 
	C35.825085,77.778404 33.606934,80.671555 31.154116,83.805916 
	C29.362343,83.270004 27.805235,82.492874 26.105356,81.413269 
	C28.819159,78.180634 31.675732,75.250458 34.818752,72.138962 
	C35.999405,72.751099 36.893608,73.544556 37.915520,74.611633 
z"/>
<path fill="#54811C" opacity="1.000000" stroke="none" 
	d="
M51.367229,85.895653 
	C55.396606,81.291534 59.801685,76.741936 64.523163,72.092171 
	C65.286873,79.752533 59.087292,84.250595 51.367229,85.895653 
z"/>
<path fill="#74B12D" opacity="1.000000" stroke="none" 
	d="
M50.666809,52.998268 
	C48.451061,56.300205 45.913269,59.438053 43.137939,62.815376 
	C41.374451,62.607101 39.848507,62.159359 38.143211,61.414196 
	C40.298443,57.946697 42.633022,54.776619 45.009529,51.242188 
	C46.815899,51.529953 48.580334,52.182068 50.666809,52.998268 
z"/>
<path fill="#507B1A" opacity="1.000000" stroke="none" 
	d="
M83.831284,64.987991 
	C81.424568,66.621948 78.985420,68.210655 76.621902,69.904877 
	C74.885864,71.149307 73.248909,72.531960 71.231148,73.946442 
	C70.613518,72.927719 70.332535,71.815552 70.108574,70.344925 
	C73.115555,67.486107 76.053024,64.970810 79.021042,62.492100 
	C80.383255,61.354465 81.805466,60.288662 83.575500,59.515289 
	C83.910782,61.556190 83.871033,63.272091 83.831284,64.987991 
z"/>
<path fill="#82C633" opacity="1.000000" stroke="none" 
	d="
M45.338383,38.913582 
	C47.280365,35.740864 49.570564,32.648067 51.954399,29.218529 
	C53.961723,29.693768 55.875420,30.505754 57.661453,31.818691 
	C55.010723,35.581802 52.487656,38.843960 49.964588,42.106121 
	C48.538593,41.068584 47.112595,40.031048 45.338383,38.913582 
z"/>
<path fill="#82C633" opacity="1.000000" stroke="none" 
	d="
M39.895599,48.602028 
	C37.305767,51.938095 34.561779,54.991005 31.482327,58.251305 
	C29.813066,57.518440 28.479273,56.578186 27.018066,55.345078 
	C29.823097,52.189533 32.755543,49.326847 35.871769,46.178646 
	C37.284180,46.701714 38.512814,47.510288 39.895599,48.602028 
z"/>
<path fill="#3E6111" opacity="1.000000" stroke="none" 
	d="
M78.180931,84.370247 
	C80.818008,81.181053 83.674515,78.254517 87.155106,75.195000 
	C88.848167,75.429909 89.917137,75.797791 90.986115,76.165672 
	C88.460365,79.296417 85.934624,82.427170 83.176346,85.799759 
	C81.429337,85.572044 79.914841,85.102470 78.180931,84.370247 
z"/>
<path fill="#7BBC30" opacity="1.000000" stroke="none" 
	d="
M49.984894,42.397720 
	C52.487656,38.843960 55.010723,35.581802 57.821060,32.136112 
	C59.405468,33.060638 60.702606,34.168690 62.060455,35.618622 
	C58.595406,38.595776 55.069656,41.231056 51.205162,43.958652 
	C50.579342,43.597088 50.292267,43.143204 49.984894,42.397720 
z"/>
<path fill="#507B1A" opacity="1.000000" stroke="none" 
	d="
M103.571365,43.124676 
	C101.099106,46.629459 98.214935,50.081150 94.806984,53.752785 
	C93.185730,53.591068 92.088257,53.209419 90.990791,52.827774 
	C92.613174,50.402702 94.235558,47.977627 95.950867,45.217201 
	C98.415688,44.278423 100.787582,43.675003 103.571365,43.124676 
z"/>
<path fill="#7BBC30" opacity="1.000000" stroke="none" 
	d="
M29.535496,67.104881 
	C27.480820,70.006042 24.973608,72.845047 22.181080,75.867737 
	C21.054558,73.300140 20.213348,70.548859 19.141344,67.042732 
	C23.285795,67.042732 26.184380,67.042732 29.535496,67.104881 
z"/>
<path fill="#38570E" opacity="1.000000" stroke="none" 
	d="
M81.888535,90.602112 
	C80.097137,93.403938 78.122810,95.924118 76.054382,98.781075 
	C74.737999,98.342316 73.515717,97.566788 72.344910,96.823921 
	C75.472244,88.772163 77.919060,87.127968 81.888535,90.602112 
z"/>
<path fill="#000000" opacity="1.000000" stroke="none" 
	d="
M90.640152,52.908253 
	C92.088257,53.209419 93.185730,53.591068 94.628586,54.040459 
	C95.325630,54.861595 95.677284,55.614990 96.100937,56.675575 
	C96.137260,58.698475 96.101562,60.414192 96.113388,62.556679 
	C96.129669,65.025658 96.098434,67.067863 96.111855,69.545578 
	C96.507210,73.367981 94.517601,74.935699 91.307800,75.985336 
	C89.917137,75.797791 88.848167,75.429909 87.441750,75.015411 
	C86.278351,73.762383 85.452400,72.555962 84.373581,71.164368 
	C84.062790,69.265503 84.004852,67.551804 83.889099,65.413048 
	C83.871033,63.272091 83.910782,61.556190 83.892166,59.414642 
	C85.985710,56.988907 88.137611,54.988823 90.640152,52.908253 
z"/>
</svg>